<?xml version="1.0" standalone="no"?>
<!DOCTYPE svg PUBLIC "-//W3C//DTD SVG 20010904//EN"
 "http://www.w3.org/TR/2001/REC-SVG-20010904/DTD/svg10.dtd">
<svg version="1.0" xmlns="http://www.w3.org/2000/svg"
 width="1433.000000pt" height="2079.000000pt" viewBox="0 0 1433.000000 2079.000000"
 preserveAspectRatio="xMidYMid meet">

<g transform="translate(0.000000,2079.000000) scale(0.100000,-0.100000)"
fill="#000000" stroke="none">
<path d="M2 19783 l3 -1006 515 -223 c529 -229 626 -265 790 -289 552 -84
1116 200 1390 699 45 82 96 216 125 328 50 196 44 385 -52 1431 l-6 67 -1383
0 -1384 0 2 -1007z"/>
<path d="M3650 20771 c0 -10 22 -227 50 -482 27 -255 65 -617 85 -804 19 -187
65 -617 101 -955 57 -528 65 -632 61 -735 -15 -340 -138 -629 -370 -872 -265
-276 -604 -424 -977 -425 -140 0 -281 20 -405 59 -44 14 -365 149 -715 300
-349 151 -817 354 -1040 450 -223 97 -413 180 -422 185 -17 8 -18 -411 -18
-8742 l0 -8750 7165 0 7165 0 0 8795 0 8795 -376 828 c-207 455 -377 828 -378
829 -1 1 -128 18 -281 38 -154 19 -295 37 -312 40 -20 4 -33 2 -33 -4 0 -6
129 -291 286 -633 679 -1477 784 -1707 784 -1712 0 -4 -25 9 -55 29 -31 19
-57 35 -59 35 -3 0 23 -59 56 -131 32 -72 58 -132 56 -134 -2 -1 -538 333
-1193 743 -654 410 -2067 1293 -3140 1964 -1072 670 -1951 1223 -1953 1229 -5
13 -1 13 209 -31 106 -22 194 -39 196 -36 2 2 -48 36 -112 75 l-115 71 -2130
0 c-2066 0 -2130 -1 -2130 -19z"/>
<path d="M7966 20781 c5 -5 63 -42 129 -84 l121 -75 974 -201 c536 -110 1117
-230 1290 -266 173 -36 321 -64 327 -63 17 4 -133 197 -161 208 -11 5 -331 73
-711 150 -1011 207 -1448 296 -1559 319 -75 16 -136 21 -259 21 -94 0 -157 -4
-151 -9z"/>
<path d="M8405 20785 c6 -3 361 -77 790 -165 429 -88 929 -192 1110 -229 182
-38 331 -68 333 -67 1 2 -78 106 -176 232 l-178 229 -944 2 c-520 1 -940 0
-935 -2z"/>
<path d="M10316 20778 c4 -7 86 -115 182 -239 l174 -226 70 -13 c38 -6 71 -10
73 -8 2 2 -82 115 -187 251 l-191 247 -64 0 c-49 0 -62 -3 -57 -12z"/>
<path d="M10472 20773 c8 -10 97 -125 197 -255 203 -264 174 -240 339 -273 46
-9 86 -15 88 -12 2 2 -11 45 -31 95 -37 96 -83 256 -110 385 l-17 77 -241 0
c-228 0 -239 -1 -225 -17z"/>
<path d="M10965 20748 c15 -95 77 -314 116 -414 43 -110 46 -114 117 -127 l34
-7 -22 33 c-69 103 -163 329 -226 545 -2 6 -8 12 -15 12 -7 0 -9 -14 -4 -42z"/>
<path d="M11006 20763 c32 -130 112 -332 177 -450 70 -125 52 -115 312 -168
127 -26 347 -71 489 -101 143 -30 265 -53 272 -52 8 2 -3 51 -36 158 -27 85
-82 263 -123 395 l-75 240 -511 3 -511 2 6 -27z"/>
<path d="M12044 20773 c3 -10 37 -121 76 -248 38 -126 91 -299 117 -384 37
-120 52 -155 68 -161 12 -5 21 -3 22 4 2 6 -53 189 -120 406 -113 362 -125
395 -146 398 -18 3 -22 0 -17 -15z"/>
<path d="M12105 20778 c8 -24 203 -661 236 -773 18 -60 36 -114 40 -119 7 -8
101 21 151 46 20 10 21 7 -218 523 -149 322 -153 330 -183 333 -22 2 -30 -1
-26 -10z"/>
<path d="M12194 20758 c13 -31 60 -135 278 -610 50 -109 96 -198 102 -198 6 1
20 6 32 13 21 12 21 12 3 52 -10 22 -94 204 -187 405 l-168 365 -37 3 -38 3
15 -33z"/>
<path d="M12273 20783 c6 -10 213 -462 272 -593 24 -52 54 -121 69 -152 l25
-57 34 14 c52 21 263 141 359 204 l87 56 -103 225 -103 225 -64 42 -64 43
-258 0 c-142 0 -256 -3 -254 -7z"/>
<path d="M12850 20766 c19 -13 36 -23 37 -22 1 1 0 12 -4 24 -4 17 -13 22 -36
22 l-31 0 34 -24z"/>
<path d="M12909 20752 c11 -22 31 -46 45 -55 14 -10 37 -24 51 -33 l24 -16
-31 71 c-31 70 -32 71 -70 71 l-38 0 19 -38z"/>
<path d="M12995 20769 c4 -12 20 -49 36 -84 29 -61 33 -64 174 -159 80 -53
148 -96 151 -96 3 0 33 21 65 46 l60 46 -200 134 c-185 123 -204 134 -247 134
-42 0 -45 -2 -39 -21z"/>
<path d="M13126 20781 c5 -5 91 -63 191 -129 l181 -121 57 41 c31 22 53 44 48
49 -4 4 -87 44 -184 88 -161 74 -182 81 -240 81 -36 0 -59 -4 -53 -9z"/>
<path d="M13360 20754 c41 -19 121 -56 176 -81 l102 -45 80 48 c45 27 81 51
82 54 0 3 -28 18 -62 33 -62 26 -67 27 -258 27 l-195 -1 75 -35z"/>
<path d="M13773 20764 l47 -24 48 24 47 25 -95 0 -95 0 48 -25z"/>
<path d="M13895 20760 l-49 -29 89 -42 c81 -37 94 -40 125 -31 126 37 186 56
189 59 3 2 -11 19 -29 38 l-34 35 -120 -1 c-115 0 -123 -1 -171 -29z"/>
<path d="M14242 20754 c29 -30 41 -35 62 -30 21 5 26 12 26 36 l0 30 -62 0
-63 0 37 -36z"/>
<path d="M13795 20706 c-11 -8 -47 -31 -80 -51 l-60 -38 83 -38 84 -38 89 44
c49 25 89 48 89 51 0 6 -166 84 -178 83 -4 0 -16 -6 -27 -13z"/>
<path d="M14305 20690 c10 -11 20 -20 22 -20 1 0 3 9 3 20 0 14 -7 20 -22 20
-20 0 -21 -1 -3 -20z"/>
<path d="M14150 20672 c-47 -16 -83 -32 -80 -37 4 -8 244 -125 256 -125 2 0 4
27 4 61 0 50 -5 66 -26 95 -32 41 -43 42 -154 6z"/>
<path d="M7805 20682 c14 -14 1325 -834 4985 -3119 564 -352 1062 -663 1107
-691 l81 -51 -53 116 c-30 64 -60 122 -67 129 -13 14 -1864 1174 -4273 2678
l-1380 862 -185 38 c-102 20 -194 40 -205 43 -13 3 -17 2 -10 -5z"/>
<path d="M12950 20672 c0 -13 169 -385 180 -396 5 -5 18 -1 33 10 l24 19 -71
154 c-65 142 -75 157 -118 189 -27 19 -48 30 -48 24z"/>
<path d="M13938 20584 c-54 -27 -87 -49 -82 -54 8 -8 462 -220 471 -220 2 0 2
41 1 91 l-3 91 -148 68 -147 68 -92 -44z"/>
<path d="M13580 20569 c-30 -22 -56 -43 -57 -47 -2 -4 26 -26 60 -48 l63 -41
77 46 c42 25 76 49 77 52 0 4 -122 62 -159 76 -3 1 -31 -16 -61 -38z"/>
<path d="M8295 20574 c11 -8 972 -610 2135 -1337 1163 -726 2405 -1502 2759
-1724 355 -221 646 -401 648 -399 3 2 -113 260 -256 573 -143 312 -372 813
-509 1113 l-249 545 -139 17 c-76 10 -140 16 -142 13 -3 -3 361 -1195 418
-1368 l9 -28 -36 30 c-20 17 -38 29 -40 28 -2 -3 57 -203 72 -246 7 -17 37
-42 -656 534 -311 258 -788 655 -1061 880 -272 226 -495 411 -494 412 1 1 55
-5 121 -13 65 -8 125 -13 131 -12 7 2 -49 54 -124 116 -121 101 -132 113 -102
108 67 -11 273 -36 276 -33 2 2 -45 66 -105 143 l-108 139 -334 68 c-184 37
-750 153 -1259 258 -509 104 -936 191 -950 194 -24 5 -25 5 -5 -11z"/>
<path d="M13084 20575 c30 -78 113 -255 120 -255 15 0 136 94 129 101 -9 7
-221 151 -242 164 -11 6 -13 4 -7 -10z"/>
<path d="M13740 20474 c-41 -25 -76 -47 -78 -49 -4 -4 654 -445 663 -445 3 0
4 71 3 157 l-3 156 -245 113 c-135 63 -250 113 -255 114 -6 0 -44 -21 -85 -46z"/>
<path d="M13432 20464 l-63 -46 63 -43 c61 -42 64 -43 88 -26 75 48 100 67
100 73 0 6 -114 88 -122 88 -2 0 -31 -21 -66 -46z"/>
<path d="M13578 20369 c-32 -22 -58 -43 -58 -47 0 -7 780 -533 800 -540 6 -2
10 33 10 85 l-1 88 -335 225 c-184 124 -341 226 -347 227 -7 1 -38 -16 -69
-38z"/>
<path d="M13277 20349 c-38 -28 -66 -56 -64 -62 23 -57 53 -117 59 -117 4 0
52 34 109 76 l102 76 -59 39 c-33 21 -63 39 -69 39 -5 -1 -41 -23 -78 -51z"/>
<path d="M13388 20233 c-59 -43 -107 -82 -107 -87 -1 -6 58 -138 130 -295 73
-157 142 -308 154 -336 l23 -50 353 -43 c195 -24 362 -46 372 -48 16 -5 17 9
17 188 l-1 193 -410 275 c-225 151 -413 276 -418 278 -4 1 -55 -33 -113 -75z"/>
<path d="M10720 20249 c20 -24 59 -73 87 -109 50 -64 52 -65 117 -78 36 -6 70
-12 76 -12 5 0 -27 47 -72 105 -87 112 -91 114 -198 131 l-45 7 35 -44z"/>
<path d="M13156 20265 c-19 -15 -19 -16 9 -77 16 -35 31 -65 32 -67 6 -9 53
23 53 35 0 22 -53 124 -65 124 -5 0 -19 -7 -29 -15z"/>
<path d="M10886 20238 c5 -7 39 -53 78 -103 38 -49 70 -91 71 -92 0 -2 185
-43 193 -43 2 0 -9 19 -23 43 -14 23 -40 70 -57 103 l-31 62 -106 21 c-124 25
-135 25 -125 9z"/>
<path d="M13030 20179 c-109 -69 -343 -199 -358 -199 -23 0 -21 -22 8 -86 17
-37 32 -70 35 -72 9 -9 293 158 421 248 l51 35 -31 68 -31 67 -95 -61z"/>
<path d="M11140 20194 c0 -11 72 -138 96 -170 20 -28 33 -33 124 -51 l101 -20
-69 63 c-38 34 -86 85 -107 113 -33 43 -46 52 -87 61 -57 12 -58 12 -58 4z"/>
<path d="M11290 20150 c16 -30 142 -154 186 -183 31 -21 98 -38 339 -88 298
-61 301 -62 374 -49 41 6 85 16 97 20 22 9 22 9 5 64 -13 45 -21 56 -41 61
-14 2 -234 47 -489 100 -255 52 -468 95 -473 95 -5 0 -4 -9 2 -20z"/>
<path d="M13226 20111 c-16 -18 -14 -26 50 -162 36 -79 97 -214 136 -299 38
-85 77 -161 86 -167 17 -14 62 -18 62 -5 0 21 -295 652 -305 652 -6 0 -20 -8
-29 -19z"/>
<path d="M13044 19992 c-72 -48 -172 -110 -223 -137 -50 -28 -91 -53 -91 -58
0 -7 98 -228 105 -235 3 -4 628 -82 631 -79 2 1 -48 113 -109 248 -62 135
-122 268 -135 297 -13 29 -29 52 -35 51 -7 0 -71 -40 -143 -87z"/>
<path d="M10884 20045 c13 -35 202 -266 220 -270 44 -9 367 -46 377 -43 5 2
-12 20 -39 41 -51 38 -114 103 -167 170 -27 35 -38 40 -119 57 -49 11 -91 18
-93 17 -1 -2 18 -31 43 -66 26 -34 44 -64 41 -67 -3 -3 -31 28 -62 69 l-58 75
-74 15 c-57 11 -73 11 -69 2z"/>
<path d="M11280 19961 c0 -17 155 -168 211 -205 l56 -37 336 -41 c305 -37 341
-40 395 -28 85 18 88 21 74 67 l-12 39 -114 23 c-90 19 -130 22 -188 17 -87
-8 -237 8 -328 36 -36 11 -99 38 -140 59 -94 49 -290 96 -290 70z"/>
<path d="M12307 19913 c9 -26 17 -49 17 -50 1 -1 11 0 23 3 19 5 20 8 8 47
-10 34 -17 43 -38 45 l-26 3 16 -48z"/>
<path d="M12598 19944 l-28 -14 37 -75 37 -74 28 15 c15 8 28 16 28 18 0 10
-61 135 -67 139 -5 3 -20 -1 -35 -9z"/>
<path d="M12465 19892 c-38 -14 -72 -27 -74 -29 -6 -4 41 -153 50 -159 10 -6
179 66 179 76 0 20 -63 140 -73 139 -7 0 -43 -12 -82 -27z"/>
<path d="M11590 19895 c14 -8 68 -29 120 -46 79 -26 115 -32 215 -35 66 -2
116 -2 110 1 -15 7 -436 95 -454 95 -11 -1 -7 -6 9 -15z"/>
<path d="M12347 19852 c-11 -2 -16 -10 -13 -20 3 -9 15 -47 26 -84 21 -69 25
-74 47 -60 10 6 8 25 -8 82 -23 83 -26 88 -52 82z"/>
<path d="M12242 19825 c-30 -7 -55 -15 -58 -17 -2 -3 28 -10 67 -17 38 -7 72
-11 74 -10 2 2 1 16 -2 32 -6 30 -6 30 -81 12z"/>
<path d="M10811 19790 c0 -5 199 -170 237 -197 12 -9 1333 -183 1386 -183 10
0 6 21 -20 105 l-26 83 -83 10 c-61 8 -101 8 -147 0 -35 -6 -121 -11 -193 -10
-148 0 -240 20 -365 77 -67 31 -97 37 -281 60 -114 14 -209 25 -213 25 -4 0 4
-15 18 -33 40 -52 30 -57 -13 -7 l-39 45 -131 15 c-72 9 -131 13 -130 10z"/>
<path d="M12675 19778 c-11 -6 -21 -12 -23 -13 -1 -1 17 -45 42 -97 41 -89 46
-96 77 -101 19 -2 36 -3 37 -1 6 5 -94 218 -104 221 -5 1 -18 -3 -29 -9z"/>
<path d="M12550 19725 c-41 -19 -83 -36 -92 -38 -16 -5 -16 -9 -4 -44 l13 -38
121 -16 c67 -8 122 -12 122 -7 0 10 -78 178 -82 177 -2 0 -37 -16 -78 -34z"/>
<path d="M11605 19691 c16 -16 155 -59 225 -70 71 -12 238 -13 285 -2 l30 7
-40 7 c-22 4 -132 18 -245 32 -113 14 -218 27 -235 30 -19 3 -26 2 -20 -4z"/>
<path d="M12390 19656 c0 -29 13 -46 36 -46 21 0 22 2 13 30 -11 31 -49 43
-49 16z"/>
<path d="M12327 19645 c-21 -6 -35 -14 -31 -18 10 -9 84 -9 84 1 -1 22 -17 28
-53 17z"/>
<path d="M10816 19588 c3 -4 161 -137 352 -295 191 -158 410 -339 487 -403 77
-64 205 -170 285 -236 80 -66 327 -270 550 -453 223 -184 413 -340 422 -348
15 -13 13 -3 -7 63 -14 44 -30 96 -35 116 -9 31 -40 62 -208 201 -108 90 -397
329 -642 532 -245 203 -562 466 -705 584 l-259 216 -122 15 c-68 9 -121 12
-118 8z"/>
<path d="M12411 19583 c0 -4 13 -46 28 -93 22 -70 30 -86 49 -88 27 -4 27 -7
-7 98 -22 70 -30 86 -49 88 -12 2 -22 0 -21 -5z"/>
<path d="M12485 19543 c8 -26 20 -66 27 -88 6 -22 15 -44 20 -49 7 -9 269 -47
276 -40 2 1 -15 45 -39 97 l-43 94 -110 12 c-61 7 -119 15 -128 17 -16 5 -16
2 -3 -43z"/>
<path d="M11096 19552 c5 -5 240 -200 523 -433 283 -233 672 -555 865 -715
193 -160 352 -288 354 -284 1 4 -17 72 -42 151 -24 79 -110 360 -191 624 -81
264 -150 484 -155 489 -6 6 -1306 175 -1354 176 -7 0 -7 -3 0 -8z"/>
<path d="M12752 19542 c2 -5 20 -47 42 -94 36 -80 41 -87 73 -93 19 -3 37 -4
39 -2 6 6 -77 181 -90 189 -15 10 -68 10 -64 0z"/>
<path d="M12855 19519 c4 -12 23 -55 42 -95 25 -52 42 -76 57 -79 52 -11 599
-75 604 -70 5 5 -64 163 -78 179 -6 5 -581 85 -628 86 -2 0 0 -10 3 -21z"/>
<path d="M13514 19428 c69 -160 74 -168 111 -168 19 0 35 2 35 4 0 3 -81 180
-83 182 -1 1 -19 4 -40 8 l-38 7 15 -33z"/>
<path d="M13600 19443 c0 -17 92 -193 100 -193 16 0 567 -68 603 -75 l28 -5
-3 92 -3 92 -362 46 c-200 25 -363 45 -363 43z"/>
<path d="M12476 19368 c4 -13 96 -308 204 -657 180 -579 199 -636 225 -655 28
-20 29 -20 21 -1 -4 11 -97 312 -207 670 -110 357 -205 653 -212 657 -24 16
-39 9 -31 -14z"/>
<path d="M12854 19322 c4 -10 117 -259 252 -553 136 -294 365 -793 511 -1109
159 -346 272 -582 285 -591 12 -9 35 -25 51 -34 28 -17 29 -17 19 1 -9 18
-199 433 -767 1674 -152 333 -284 611 -293 618 -9 6 -27 12 -40 12 -18 0 -22
-4 -18 -18z"/>
<path d="M13600 19243 c0 -2 82 -183 182 -401 100 -218 264 -577 365 -797
l183 -400 -1 75 0 75 -327 720 -328 720 -37 6 c-20 3 -37 4 -37 2z"/>
<path d="M13700 19225 c0 -4 160 -356 531 -1165 l99 -215 0 655 0 656 -307 37
c-324 40 -323 40 -323 32z"/>
</g>
</svg>
