<?xml version="1.0" standalone="no"?>
<!DOCTYPE svg PUBLIC "-//W3C//DTD SVG 20010904//EN"
 "http://www.w3.org/TR/2001/REC-SVG-20010904/DTD/svg10.dtd">
<svg version="1.0" xmlns="http://www.w3.org/2000/svg"
 width="3240.000000pt" height="3240.000000pt" viewBox="0 0 3240.000000 3240.000000"
 preserveAspectRatio="xMidYMid meet">

<g transform="translate(0.000000,3240.000000) scale(0.100000,-0.100000)"
fill="#000000" stroke="none">
<path d="M26201 23096 c-48 -13 -121 -77 -121 -106 0 -10 -22 -45 -50 -77 -27
-32 -50 -62 -50 -67 0 -5 -11 -24 -24 -41 -78 -102 -120 -250 -166 -580 -13
-93 -12 -461 1 -550 12 -84 0 -142 -42 -196 -30 -39 -52 -112 -43 -146 4 -13
-2 -33 -13 -50 -11 -15 -43 -76 -71 -135 -28 -59 -62 -122 -76 -141 -14 -19
-26 -38 -26 -43 0 -5 -16 -33 -35 -63 -19 -29 -35 -55 -35 -59 0 -3 -14 -34
-31 -69 l-31 -63 -251 0 -252 0 -51 78 c-47 71 -84 140 -84 157 0 4 -13 24
-28 44 -15 20 -37 54 -47 76 -11 22 -39 68 -63 102 -23 34 -46 72 -51 85 -14
35 -73 114 -103 137 -27 21 -124 51 -166 51 -25 0 -218 -44 -262 -59 -14 -5
-65 -21 -115 -36 -49 -14 -97 -30 -105 -34 -9 -5 -30 -12 -48 -16 -18 -3 -51
-17 -75 -29 -23 -13 -59 -26 -79 -30 -20 -3 -41 -13 -48 -21 -7 -8 -18 -15
-25 -15 -12 0 -43 -13 -95 -41 -8 -5 -48 -25 -88 -45 -39 -20 -80 -46 -90 -58
-9 -11 -65 -56 -124 -99 -60 -43 -119 -93 -132 -110 -29 -38 -48 -113 -40
-155 3 -16 -2 -61 -11 -101 -17 -66 -17 -75 -1 -138 9 -38 16 -91 16 -118 0
-28 7 -77 15 -108 8 -32 15 -79 15 -105 0 -26 6 -71 14 -101 l13 -53 -35 -34
c-19 -19 -40 -34 -46 -34 -6 0 -34 -20 -61 -45 -28 -25 -57 -45 -65 -45 -8 1
-33 9 -55 20 -22 11 -44 19 -48 20 -8 0 -58 22 -194 86 -39 19 -81 34 -92 34
-11 0 -22 4 -25 9 -6 9 -44 28 -138 70 -75 34 -159 52 -203 45 -101 -15 -174
-75 -309 -252 -26 -34 -61 -77 -77 -94 -16 -18 -29 -36 -29 -41 0 -5 -13 -26
-30 -47 -16 -21 -30 -42 -30 -47 0 -5 -16 -27 -35 -49 -19 -21 -35 -44 -35
-50 0 -7 -24 -45 -52 -86 -55 -76 -105 -150 -123 -180 -5 -10 -29 -45 -52 -78
-24 -33 -43 -63 -43 -66 0 -3 -13 -25 -30 -49 -16 -24 -30 -48 -30 -53 0 -5
-12 -27 -27 -49 -72 -102 -76 -115 -77 -213 0 -62 4 -95 18 -122 10 -20 77
-97 149 -170 73 -73 149 -153 169 -178 19 -25 74 -85 122 -134 75 -77 85 -92
79 -115 -3 -14 -10 -31 -14 -37 -5 -6 -16 -44 -24 -84 -9 -41 -20 -77 -26 -81
-6 -3 -36 -9 -67 -12 -32 -4 -77 -13 -102 -20 -25 -8 -81 -22 -125 -32 -44 -9
-102 -23 -130 -30 -27 -7 -75 -18 -105 -24 -47 -10 -77 -28 -207 -126 l-153
-115 -2 1979 -3 1979 -30 43 c-16 23 -48 52 -70 63 -39 20 -55 21 -534 24
-332 2 -512 -1 -547 -8 -48 -10 -65 -22 -161 -111 -168 -155 -200 -194 -212
-251 -7 -31 -11 -245 -11 -578 l0 -530 -695 0 -695 0 0 640 c0 417 -4 656 -11
689 -15 71 -71 126 -143 141 -35 7 -217 10 -547 8 -489 -3 -494 -3 -536 -25
l-43 -23 -42 23 -43 22 -1030 0 c-1146 0 -1107 2 -1369 -70 -204 -56 -341
-117 -505 -225 -140 -92 -214 -154 -431 -362 -212 -202 -263 -257 -359 -388
-35 -47 -64 -86 -65 -87 0 -1 -1 213 -1 475 0 363 -3 487 -13 520 -19 64 -78
117 -144 132 -39 8 -394 10 -1353 8 l-1300 -4 -98 -22 c-313 -72 -486 -166
-723 -392 -66 -63 -155 -147 -197 -185 l-76 -71 -4 251 c-2 163 -8 263 -16
288 -18 55 -78 111 -134 125 -64 17 -3662 17 -3738 1 -47 -10 -63 -22 -193
-147 -77 -74 -150 -151 -161 -171 -19 -35 -20 -55 -20 -546 0 -498 0 -511 21
-550 11 -22 40 -53 63 -70 l43 -30 609 -3 609 -3 2 -1418 3 -1419 30 -43 c17
-23 48 -52 70 -63 39 -21 52 -21 565 -21 483 0 528 1 561 18 19 10 99 79 176
155 134 130 141 140 152 190 8 37 11 434 11 1328 l0 1274 469 0 c258 0 481 2
494 5 l24 6 6 -158 c8 -231 64 -448 157 -607 22 -38 40 -72 40 -76 0 -4 -15
-33 -34 -64 -96 -159 -156 -390 -164 -623 -13 -415 124 -760 415 -1047 169
-167 350 -276 564 -340 226 -68 198 -67 1635 -64 l1290 3 40 26 c52 35 254
224 278 261 37 57 46 131 46 383 l0 240 27 -40 c175 -261 489 -537 774 -680
176 -89 442 -163 664 -185 74 -8 427 -10 1085 -8 l975 3 43 22 42 23 43 -23
c42 -22 47 -22 537 -25 333 -2 509 1 539 8 62 15 96 42 241 184 118 116 129
130 139 176 7 33 11 238 11 580 l0 530 695 0 695 0 0 -634 c0 -466 3 -649 12
-688 16 -69 74 -130 140 -146 65 -16 981 -17 1045 -1 38 10 68 33 182 141
l136 129 3 -52 c2 -28 -2 -74 -7 -101 -14 -63 -14 -888 -1 -943 6 -22 17 -71
25 -109 17 -76 34 -102 99 -151 47 -36 104 -54 173 -55 23 0 54 -5 69 -10 15
-6 63 -15 108 -20 83 -10 142 -20 257 -45 37 -8 87 -15 112 -15 50 0 68 -18
81 -78 4 -17 12 -34 17 -37 5 -4 9 -14 9 -23 0 -9 7 -30 15 -46 8 -15 15 -36
15 -45 0 -9 7 -29 15 -45 8 -15 15 -33 15 -38 0 -6 6 -24 14 -41 8 -18 22 -55
32 -83 l17 -52 -31 -38 c-18 -21 -32 -43 -32 -48 0 -5 -30 -39 -67 -77 -38
-38 -75 -82 -84 -99 -9 -16 -78 -98 -152 -181 -119 -133 -137 -158 -146 -201
-12 -54 -1 -125 24 -162 8 -11 15 -29 15 -40 0 -30 40 -105 96 -180 29 -37 62
-88 74 -112 13 -24 31 -51 41 -60 11 -10 19 -22 19 -28 0 -6 16 -29 36 -51 20
-22 60 -71 89 -110 29 -38 67 -83 85 -100 18 -16 59 -63 92 -104 74 -92 132
-137 193 -151 75 -17 103 -9 305 87 113 53 127 60 160 69 14 3 32 12 40 19 8
7 38 23 65 36 28 13 64 33 80 45 40 29 123 64 149 64 11 -1 37 -14 56 -30 19
-17 37 -30 41 -30 4 0 40 -24 79 -54 39 -29 83 -59 98 -67 15 -7 52 -32 82
-54 30 -22 72 -52 92 -65 21 -14 38 -28 38 -32 0 -4 -7 -33 -15 -65 -10 -37
-15 -105 -15 -195 0 -89 -5 -157 -15 -195 -18 -68 -20 -258 -4 -333 13 -60 80
-134 131 -145 18 -4 39 -11 48 -16 26 -14 108 -49 117 -49 4 -1 26 -9 48 -20
22 -11 47 -19 56 -20 9 0 30 -7 45 -15 16 -8 38 -15 49 -15 12 0 25 -4 30 -9
6 -6 28 -14 50 -20 22 -6 92 -24 155 -41 63 -16 123 -30 134 -30 10 0 55 -9
100 -19 44 -11 124 -21 176 -22 189 -4 226 25 314 246 42 106 69 160 93 184
18 19 33 39 33 44 0 9 90 194 128 263 l13 24 259 0 259 0 7 -22 c4 -13 18 -39
33 -58 34 -45 46 -66 72 -117 11 -22 29 -49 40 -59 10 -9 19 -25 19 -34 0 -10
7 -23 15 -30 8 -7 15 -19 15 -27 0 -8 12 -32 28 -52 37 -50 47 -66 83 -140 44
-89 115 -156 180 -170 27 -6 62 -11 76 -11 48 0 312 67 355 91 10 5 26 9 35 9
10 0 31 7 47 15 15 8 36 15 45 15 9 1 34 9 56 20 22 11 44 19 48 20 9 0 93 36
119 50 10 6 25 10 34 10 9 0 62 23 118 50 56 27 106 50 112 50 5 0 28 17 52
38 26 23 81 54 135 76 183 75 190 88 194 361 2 142 -1 220 -12 270 -37 187
-45 234 -45 275 0 25 -5 64 -10 88 l-10 43 47 44 c27 24 52 44 57 45 5 0 28
15 50 34 41 33 43 34 88 22 25 -6 51 -16 59 -21 29 -21 151 -75 214 -95 22 -7
65 -26 95 -41 30 -15 78 -37 105 -49 28 -12 65 -28 83 -36 62 -28 142 -38 206
-24 54 11 66 19 142 94 46 45 87 93 93 106 5 14 46 72 92 130 45 58 89 117 98
131 9 15 39 60 67 100 28 41 54 86 57 99 4 14 32 52 62 85 30 32 55 63 55 68
0 5 14 26 30 47 17 21 30 43 30 50 0 7 14 29 30 50 17 21 30 42 30 47 0 5 16
32 35 62 19 29 35 59 35 66 0 7 7 18 15 25 8 7 15 17 15 23 0 6 6 18 14 26 40
44 44 213 8 279 -9 17 -131 146 -269 286 -139 140 -253 259 -253 265 0 5 16
59 35 119 l36 110 77 17 c180 39 212 46 317 70 61 14 124 32 140 40 17 8 81
23 142 34 120 21 153 37 197 94 31 41 43 93 51 232 3 61 13 140 22 176 13 56
14 132 11 480 -5 411 -5 415 -33 528 -36 147 -60 175 -185 210 -47 13 -114 27
-150 31 -96 12 -194 29 -291 51 -47 10 -98 19 -113 19 -15 0 -55 7 -89 16 -61
15 -63 16 -74 57 -29 110 -37 133 -49 148 -8 8 -14 21 -14 28 0 7 -8 31 -19
54 -33 76 -35 82 -37 132 -2 28 -4 59 -6 69 -2 16 82 78 417 307 241 165 433
290 452 294 38 7 108 74 118 113 10 39 68 107 112 129 115 58 386 246 478 331
44 41 98 82 121 93 22 10 58 32 79 49 21 16 43 30 50 30 7 0 31 18 53 41 32
31 43 52 52 95 13 61 -1 154 -26 174 -7 7 -14 16 -14 21 0 12 -18 50 -39 84
-11 17 -30 50 -42 75 -12 25 -28 52 -34 60 -7 8 -16 26 -20 40 -8 26 -51 83
-110 146 -18 19 -41 47 -50 61 -10 14 -32 42 -50 62 -59 65 -100 115 -129 159
-16 23 -31 42 -35 42 -7 0 -102 80 -179 151 -30 27 -58 49 -63 49 -5 0 -35 20
-66 44 -76 57 -141 73 -224 56 -32 -7 -64 -19 -70 -26 -6 -7 -22 -15 -37 -19
-29 -6 -178 -128 -252 -205 -25 -26 -65 -63 -90 -81 -86 -65 -220 -195 -220
-215 0 -6 -18 -25 -40 -43 -21 -17 -54 -53 -72 -79 -18 -26 -47 -62 -65 -81
-18 -19 -33 -39 -33 -45 0 -7 -15 -20 -32 -31 -18 -10 -66 -54 -108 -96 l-75
-78 -58 16 c-50 14 -67 15 -119 4 -35 -7 -77 -24 -100 -42 -23 -16 -46 -29
-52 -29 -6 0 -23 -6 -38 -14 -22 -12 -16 0 34 67 33 45 64 93 69 106 5 13 23
41 39 61 17 21 30 44 30 52 0 8 4 18 9 24 5 5 22 34 38 64 16 30 42 78 57 105
16 28 35 61 42 75 8 14 14 34 14 46 0 11 4 24 9 30 29 32 30 192 2 267 -14 35
-67 85 -116 107 -24 11 -46 24 -49 29 -3 5 -18 12 -33 16 -14 3 -38 15 -52 27
-14 11 -39 26 -56 34 -16 7 -37 17 -45 22 -36 21 -176 91 -250 126 -19 9 -50
25 -69 36 -71 40 -212 34 -271 -12 -29 -23 -100 -123 -100 -141 0 -7 -4 -17
-9 -23 -8 -8 -21 -30 -59 -100 -6 -11 -23 -44 -37 -74 -15 -30 -38 -77 -52
-105 l-26 -50 -14 69 c-8 38 -23 81 -34 94 -24 32 -79 72 -96 72 -7 0 -21 4
-31 9 -44 24 -132 61 -146 61 -8 0 -18 5 -21 10 -3 6 -13 10 -22 10 -8 0 -29
6 -46 14 -18 8 -60 23 -94 32 -60 17 -63 20 -63 49 0 17 4 35 10 41 5 5 17 45
25 89 9 44 20 89 25 100 15 34 30 102 29 132 -2 42 11 117 37 223 25 101 29
178 24 414 -1 82 -8 160 -17 190 -8 28 -22 78 -30 111 -9 33 -21 67 -28 75 -7
8 -16 25 -19 37 -4 12 -18 41 -31 65 -13 24 -36 67 -51 96 -42 80 -95 128
-155 141 -61 13 -111 13 -168 -3z m109 -220 c0 -7 7 -19 15 -26 8 -7 15 -21
15 -31 0 -9 7 -24 15 -32 7 -8 17 -27 21 -43 4 -16 13 -35 21 -42 7 -7 13 -22
13 -31 0 -10 7 -24 15 -31 8 -7 15 -25 15 -41 0 -15 5 -31 10 -34 6 -4 10 -14
9 -23 -4 -40 2 -83 10 -78 5 3 8 -48 8 -114 -1 -66 -4 -120 -8 -120 -4 0 -5
-25 -2 -56 3 -35 0 -61 -8 -70 -7 -9 -9 -34 -6 -69 3 -30 2 -55 -3 -55 -7 0
-26 -144 -22 -163 2 -5 -2 -6 -8 -2 -6 4 -10 -8 -10 -29 0 -20 -4 -36 -9 -36
-5 0 -12 -40 -15 -90 -4 -49 -12 -90 -17 -90 -5 0 -9 -7 -9 -15 0 -8 -4 -15
-9 -15 -11 0 -22 -79 -21 -144 1 -27 -3 -52 -9 -55 -13 -8 -2 -122 13 -144 8
-9 29 -17 55 -19 24 -1 45 -7 48 -14 2 -6 26 -14 53 -18 27 -4 50 -11 52 -16
2 -5 21 -12 43 -16 22 -3 43 -10 46 -16 3 -5 25 -12 48 -15 25 -4 41 -11 41
-19 0 -9 12 -14 34 -14 19 0 41 -6 49 -14 8 -8 27 -16 43 -18 l29 -3 0 -184
c0 -139 -3 -185 -12 -189 -9 -2 -13 -34 -13 -110 0 -133 -10 -243 -21 -236 -5
3 -9 -31 -9 -75 l0 -79 30 -7 c17 -4 27 -11 24 -16 -3 -6 3 -13 14 -16 11 -3
23 -11 26 -19 3 -8 17 -14 31 -14 16 0 25 -6 25 -15 0 -20 36 -19 44 1 3 9 4
20 0 25 -3 5 0 9 5 9 6 0 11 7 11 15 0 8 5 15 10 15 6 0 10 11 10 24 0 13 13
50 29 82 16 32 35 74 43 92 7 17 16 32 20 32 5 0 8 11 8 25 0 14 5 25 10 25 6
0 10 9 10 20 0 11 4 20 8 20 4 0 9 15 10 33 2 17 7 34 12 35 6 2 10 26 10 53
0 27 5 49 10 49 6 0 10 9 10 20 0 11 5 29 10 40 6 11 15 29 20 40 6 11 10 31
10 45 0 14 4 33 9 43 5 9 15 31 22 47 8 17 18 33 22 36 4 3 9 16 10 27 1 12 4
22 8 22 4 0 9 8 13 18 3 9 14 31 25 47 11 17 20 38 20 48 1 9 6 17 11 17 6 0
10 6 10 14 0 8 3 16 8 18 4 2 18 26 32 53 13 28 35 64 47 81 13 17 23 36 23
42 0 7 9 12 20 12 11 0 20 -4 20 -10 0 -5 7 -10 15 -10 8 0 15 -3 15 -7 0 -9
49 -33 67 -33 7 0 13 -4 13 -8 0 -5 18 -15 40 -22 22 -7 40 -16 40 -19 0 -6
60 -32 69 -30 2 0 7 -3 10 -8 6 -8 28 -20 116 -67 22 -12 42 -24 43 -28 2 -5
10 -8 18 -8 8 0 14 -4 14 -10 0 -5 11 -10 25 -10 14 0 25 -4 25 -10 0 -5 9
-10 20 -10 11 0 20 -4 20 -10 0 -5 9 -10 20 -10 24 0 24 -1 4 -48 -9 -20 -18
-46 -19 -56 -1 -11 -7 -22 -14 -24 -6 -2 -9 -8 -5 -13 3 -5 -4 -22 -15 -38
-12 -16 -21 -33 -21 -38 0 -15 -25 -63 -32 -63 -5 0 -8 -7 -8 -15 0 -17 -18
-52 -37 -73 -7 -7 -13 -20 -13 -28 0 -8 -3 -14 -8 -14 -4 0 -13 -13 -20 -28
-6 -16 -21 -38 -31 -49 -11 -12 -18 -23 -16 -25 3 -2 -8 -18 -23 -35 -15 -17
-38 -45 -52 -63 -14 -18 -31 -37 -38 -44 -32 -27 -94 -104 -117 -143 -11 -18
-23 -33 -27 -33 -4 0 -8 -7 -8 -15 0 -8 -7 -15 -15 -15 -8 0 -15 -7 -15 -15 0
-8 -3 -15 -7 -15 -9 0 -33 -49 -33 -67 0 -7 -4 -13 -10 -13 -5 0 -10 -7 -10
-15 0 -8 -4 -15 -10 -15 -5 0 -10 -11 -10 -25 0 -14 -5 -25 -11 -25 -5 0 -17
-17 -25 -37 -8 -21 -27 -62 -42 -92 -20 -41 -24 -55 -14 -59 7 -2 22 -13 32
-24 15 -17 27 -20 56 -15 21 4 40 11 43 16 4 5 18 12 33 16 15 4 29 13 32 21
3 8 12 14 21 14 8 0 15 5 15 10 0 6 6 10 13 10 7 0 29 9 50 20 20 11 44 20 52
20 8 0 15 7 15 15 0 8 3 14 8 14 27 -5 52 3 52 16 0 10 10 15 30 15 17 0 33 6
36 14 3 7 23 16 44 20 21 3 40 11 42 18 2 6 15 13 28 15 14 2 28 10 33 18 4 8
21 15 37 15 20 0 30 5 30 15 0 10 10 15 30 15 20 0 30 5 30 15 0 8 9 15 20 15
12 0 20 7 20 17 0 12 14 3 43 -30 57 -63 79 -63 151 6 80 75 154 147 189 184
16 17 44 34 63 37 33 7 74 46 74 72 0 8 6 14 13 14 18 0 57 34 57 49 0 6 5 11
10 11 6 0 10 6 10 14 0 8 27 41 60 74 33 33 60 64 60 69 0 5 9 15 20 23 11 8
20 20 20 27 0 7 3 13 8 13 4 0 27 20 52 45 25 24 48 44 52 45 4 0 21 12 37 28
65 60 103 92 110 92 4 0 14 11 21 25 7 14 19 25 27 25 7 0 26 14 41 30 16 17
33 30 37 30 4 0 21 12 36 28 61 58 73 66 77 54 2 -7 14 -12 26 -12 12 0 43
-20 70 -45 27 -25 53 -45 57 -45 4 0 45 -37 92 -82 96 -95 123 -118 137 -118
6 0 10 -9 10 -20 0 -11 7 -20 15 -20 8 0 15 -7 15 -15 0 -8 20 -34 45 -58 25
-24 45 -47 45 -51 0 -3 8 -14 18 -24 36 -38 72 -86 72 -98 0 -7 3 -14 8 -16
11 -5 52 -66 52 -78 0 -5 4 -10 9 -10 5 0 13 -10 17 -22 4 -13 9 -25 13 -28
18 -15 49 -69 54 -98 4 -18 18 -45 32 -60 30 -32 33 -68 5 -77 -11 -3 -27 -16
-37 -28 -10 -12 -37 -31 -61 -41 -23 -11 -77 -52 -120 -93 -69 -65 -217 -172
-342 -247 -81 -48 -85 -51 -90 -58 -3 -4 -17 -12 -30 -17 -24 -10 -36 -17 -77
-41 -10 -6 -25 -13 -33 -16 -9 -3 -23 -23 -33 -45 -9 -21 -21 -39 -26 -39 -14
0 -63 -80 -49 -81 7 0 3 -4 -9 -9 -12 -5 -74 -44 -138 -87 -64 -43 -146 -97
-183 -120 -37 -22 -72 -45 -77 -50 -33 -28 -100 -75 -170 -120 -44 -29 -85
-57 -92 -63 -7 -5 -16 -10 -21 -10 -8 0 -23 -11 -69 -50 -7 -5 -15 -10 -18
-10 -4 0 -13 -6 -20 -12 -25 -22 -58 -47 -140 -106 -133 -94 -135 -96 -135
-135 0 -19 9 -45 20 -60 11 -14 20 -30 20 -36 0 -6 4 -11 9 -11 4 0 11 -21 14
-46 2 -26 10 -49 16 -53 10 -7 19 -37 20 -73 1 -10 8 -18 16 -18 8 0 14 -3 14
-7 -1 -5 -1 -25 0 -45 1 -27 6 -38 16 -38 10 0 15 -11 15 -35 0 -21 5 -35 13
-35 8 0 7 -4 -3 -10 -13 -8 -12 -10 3 -10 13 0 17 -9 17 -39 0 -22 7 -46 15
-55 8 -8 15 -28 15 -45 0 -16 7 -36 15 -45 8 -8 15 -22 15 -30 0 -12 11 -16
45 -16 27 0 47 -5 52 -14 6 -10 34 -15 97 -17 60 -3 91 -8 94 -17 2 -8 25 -12
67 -12 72 0 127 -9 120 -20 -2 -4 32 -10 77 -14 45 -4 85 -11 88 -17 4 -5 44
-12 90 -16 118 -9 123 -15 128 -165 3 -65 8 -118 12 -118 4 0 11 -79 15 -176
8 -192 -2 -497 -16 -488 -5 3 -9 -7 -9 -23 0 -15 -4 -33 -8 -40 -4 -7 -55 -21
-112 -33 -58 -11 -106 -24 -108 -30 -2 -5 -13 -10 -24 -10 -12 0 -27 -8 -34
-17 -13 -17 -14 -17 -8 0 4 11 1 17 -10 17 -9 0 -15 -5 -13 -12 2 -14 -4 -15
-69 -17 -25 0 -43 -5 -39 -10 3 -5 1 -12 -4 -15 -5 -3 -7 -15 -4 -26 3 -12 0
-20 -7 -20 -7 0 -10 -6 -7 -14 7 -18 -39 -49 -63 -43 -13 3 -17 0 -13 -9 4
-10 -3 -14 -22 -14 l-28 0 23 -20 c25 -22 20 -26 -10 -10 -16 9 -18 8 -13 -6
4 -11 15 -15 34 -12 16 3 29 1 29 -4 0 -4 15 -8 34 -8 30 0 33 -3 32 -29 -1
-18 -5 -27 -13 -24 -7 3 -13 0 -13 -7 0 -6 -4 -8 -10 -5 -17 10 -80 -6 -80
-21 0 -11 -16 -14 -65 -14 -36 0 -68 0 -72 1 -4 0 -10 -8 -14 -18 -7 -16 -8
-15 -8 5 -1 12 -6 22 -11 22 -6 0 -10 -8 -8 -17 3 -15 -8 -19 -62 -24 -36 -4
-68 -5 -72 -2 -5 2 -8 2 -8 -2 0 -3 10 -9 22 -14 19 -7 16 -9 -20 -15 -42 -6
-42 -6 -42 -50 0 -25 -6 -51 -13 -58 -8 -7 -16 -33 -20 -57 -3 -24 -10 -47
-15 -50 -5 -3 -12 -26 -15 -50 -3 -24 -11 -47 -17 -51 -7 -4 -16 -34 -20 -66
-4 -33 -8 -50 -9 -39 l-2 20 -9 -20 c-16 -37 -11 -84 10 -102 11 -10 20 -23
20 -30 0 -7 7 -13 15 -13 8 0 15 -7 15 -15 0 -8 7 -15 15 -15 8 0 15 -7 15
-15 0 -8 7 -15 15 -15 8 0 15 -7 15 -15 0 -8 7 -15 15 -15 8 0 15 -7 15 -15 0
-8 7 -15 15 -15 8 0 15 -5 15 -12 0 -13 76 -88 90 -88 6 0 10 -7 10 -15 0 -8
7 -15 15 -15 8 0 15 -7 15 -15 0 -8 7 -15 15 -15 8 0 15 -5 15 -11 0 -15 74
-89 89 -89 6 0 10 -3 9 -7 -4 -10 39 -53 52 -53 6 0 10 -7 10 -15 0 -8 7 -15
15 -15 8 0 15 -9 15 -20 0 -11 7 -20 15 -20 11 0 15 -12 15 -45 0 -31 -4 -44
-12 -43 -8 2 -14 -9 -16 -25 -2 -16 -10 -31 -18 -34 -8 -3 -14 -11 -14 -19 0
-8 -6 -14 -14 -14 -8 0 -17 -12 -21 -27 -3 -15 -12 -31 -18 -35 -12 -7 -14
-12 -16 -49 0 -11 -6 -17 -11 -14 -6 3 -13 -2 -17 -12 -4 -10 -13 -24 -20 -31
-7 -7 -13 -22 -13 -33 0 -10 -7 -19 -15 -19 -8 0 -15 -9 -15 -20 0 -11 -7 -20
-15 -20 -8 0 -14 -3 -13 -7 3 -15 -16 -48 -39 -69 -13 -12 -23 -26 -23 -33 0
-6 -6 -11 -14 -11 -8 0 -18 -14 -22 -32 -6 -28 -8 -30 -14 -13 -6 17 -8 15
-14 -12 -4 -19 -14 -33 -22 -33 -8 0 -14 -7 -14 -15 0 -9 -7 -18 -15 -21 -8
-4 -15 -15 -15 -25 0 -10 -9 -24 -20 -31 -11 -7 -20 -16 -20 -20 0 -37 -101
-66 -114 -33 -3 9 -18 15 -35 15 -16 0 -31 6 -35 15 -3 9 -18 15 -36 15 -22 0
-30 5 -30 18 0 14 -2 15 -10 2 -6 -10 -10 -11 -10 -2 0 6 -9 12 -19 12 -11 0
-26 6 -33 14 -8 7 -29 17 -46 21 -18 3 -32 10 -32 15 0 5 -14 12 -32 15 -17 4
-38 14 -46 21 -7 8 -27 14 -43 14 -17 0 -28 4 -25 9 7 11 -17 21 -50 21 -15 0
-24 6 -24 15 0 11 -12 15 -45 15 -33 0 -45 4 -45 15 0 10 -10 15 -32 15 -18 0
-42 7 -52 15 -25 19 -46 19 -46 0 0 -8 -9 -15 -20 -15 -11 0 -20 -7 -20 -15 0
-8 -7 -15 -15 -15 -8 0 -23 -9 -32 -20 -10 -11 -22 -20 -28 -20 -6 0 -21 -13
-35 -30 -14 -16 -30 -30 -37 -30 -7 0 -13 -4 -13 -10 0 -5 -11 -12 -24 -16
-14 -3 -27 -12 -30 -20 -3 -8 -12 -14 -21 -14 -8 0 -15 -7 -15 -15 0 -8 -7
-15 -15 -15 -8 0 -15 -7 -15 -15 0 -8 -6 -15 -13 -15 -7 0 -20 -9 -30 -20 -9
-11 -23 -20 -31 -20 -8 0 -16 -7 -20 -15 -3 -8 -12 -15 -21 -15 -8 0 -15 -4
-15 -9 0 -5 -13 -12 -30 -16 -16 -4 -30 -13 -30 -21 0 -8 -7 -14 -15 -14 -8 0
-15 -7 -15 -15 0 -8 -7 -15 -15 -15 -9 0 -18 -7 -21 -15 -4 -8 -12 -15 -20
-15 -8 0 -14 -6 -14 -14 0 -8 -7 -16 -15 -20 -12 -4 -15 -27 -14 -120 1 -64 4
-128 7 -143 5 -24 6 -25 12 -8 4 11 9 -36 12 -104 3 -77 10 -126 17 -130 18
-11 13 -151 -6 -151 -8 0 -12 -4 -9 -9 3 -5 -3 -11 -14 -14 -11 -3 -20 -1 -20
5 0 5 -4 6 -10 3 -5 -3 -10 -17 -10 -31 0 -16 -6 -24 -17 -25 -103 -7 -191 -6
-203 2 -12 8 -12 12 -2 16 17 7 -14 43 -37 43 -13 0 -13 -2 -2 -9 11 -7 10
-11 -5 -20 -18 -10 -18 -10 -1 -11 10 0 15 -4 12 -10 -3 -5 1 -10 9 -10 9 0
16 -2 16 -4 0 -2 3 -12 6 -21 6 -14 2 -15 -31 -9 -27 5 -36 4 -31 -5 5 -7 -2
-11 -18 -11 -18 0 -26 -5 -26 -17 0 -15 2 -16 10 -3 8 13 10 12 10 -2 0 -10
-4 -18 -10 -18 -5 0 -10 -9 -10 -19 0 -11 -6 -22 -12 -25 -7 -3 -4 -4 7 -3 14
2 19 9 17 22 -3 16 -1 17 9 8 10 -10 10 -15 -1 -28 -15 -18 -32 -19 -49 -3 -6
7 -17 13 -24 13 -7 0 -13 10 -15 23 -2 12 -1 22 1 22 17 0 37 -14 37 -26 0 -8
4 -14 8 -14 4 0 8 20 8 44 0 25 -4 42 -9 39 -5 -3 -7 -13 -4 -22 3 -14 -1 -16
-24 -13 -29 4 -29 4 -29 -50 0 -30 -3 -83 -6 -117 -6 -50 -9 -59 -20 -50 -11
9 -14 7 -15 -7 0 -11 -3 -14 -6 -6 -6 15 -24 16 -21 0 2 -6 -7 -14 -20 -17
-13 -3 -23 -9 -23 -13 3 -37 -1 -42 -14 -18 l-14 25 -1 -25 c0 -14 -3 -20 -8
-14 -4 6 -18 10 -32 9 -23 -3 -25 1 -28 38 -3 43 -22 78 -22 41 0 -12 -3 -15
-8 -7 -12 19 -60 23 -77 7 -10 -10 -15 -11 -15 -3 0 9 -4 8 -15 -1 -8 -7 -15
-9 -15 -5 0 4 -6 3 -12 -3 -7 -6 -17 -12 -23 -14 -5 -1 -9 -7 -7 -12 2 -5 -4
-6 -13 -2 -9 3 -20 6 -25 6 -4 0 -8 6 -7 13 1 33 -4 47 -18 47 -9 0 -15 9 -15
21 0 15 -5 19 -15 15 -8 -3 -15 -1 -15 4 0 6 8 11 18 11 15 1 15 2 1 6 -10 2
-19 13 -22 25 -3 11 -10 17 -16 13 -9 -5 -13 12 -10 42 0 4 -9 11 -21 15 -12
4 -18 12 -15 18 3 6 -3 14 -15 18 -12 4 -21 11 -21 15 4 31 -1 47 -14 47 -8 0
-15 7 -15 15 0 8 -7 15 -15 15 -10 0 -15 10 -15 30 0 20 -5 30 -15 30 -8 0
-15 9 -15 20 0 11 -7 20 -15 20 -8 0 -15 9 -15 19 0 11 -7 26 -15 34 -7 8 -17
26 -21 41 -3 14 -12 26 -20 26 -8 0 -14 7 -14 15 0 12 -20 15 -116 15 -63 0
-113 -4 -110 -9 8 -12 -152 -21 -401 -21 -184 0 -223 -2 -223 -14 0 -8 -7 -16
-15 -20 -8 -3 -15 -16 -15 -29 0 -14 -7 -30 -15 -37 -8 -7 -15 -23 -15 -36 0
-12 -6 -29 -13 -36 -8 -7 -17 -26 -21 -43 -5 -20 -10 -25 -16 -16 -5 10 -10 4
-15 -20 -4 -18 -14 -39 -21 -47 -8 -7 -14 -22 -14 -33 0 -12 -4 -17 -11 -14
-6 4 -13 -2 -16 -14 -3 -12 -12 -21 -19 -21 -8 0 -14 -10 -14 -25 0 -14 -7
-28 -15 -31 -8 -4 -15 -14 -15 -24 0 -10 -7 -25 -15 -34 -8 -8 -18 -28 -21
-45 -4 -17 -11 -29 -18 -28 -6 1 -12 -13 -14 -30 -2 -21 -9 -33 -18 -33 -9 0
-14 -11 -14 -30 0 -16 -4 -30 -9 -30 -5 0 -12 -13 -16 -30 -7 -32 -19 -39 -29
-15 -4 11 -22 15 -71 15 -51 0 -65 3 -65 15 0 12 -15 15 -75 15 -60 0 -75 3
-75 15 0 11 -12 15 -50 15 -36 0 -50 4 -50 14 0 14 -42 26 -90 26 -16 0 -30 7
-34 15 -3 9 -18 15 -36 15 -16 0 -30 5 -30 10 0 6 -5 10 -11 10 -5 0 -7 -4 -4
-10 3 -5 1 -10 -4 -10 -6 0 -11 4 -11 9 0 6 -21 13 -47 17 -26 4 -53 13 -61
20 -7 8 -29 14 -48 14 -24 0 -34 5 -34 15 0 10 -11 15 -35 15 -24 0 -35 5 -35
15 0 8 -6 14 -12 13 -10 -2 -13 35 -11 162 1 91 2 199 3 240 0 52 3 70 10 60
10 -16 12 29 14 275 1 91 -2 119 -11 117 -7 -1 -13 5 -13 13 0 8 -7 15 -15 15
-9 0 -18 7 -21 15 -4 8 -12 15 -19 15 -6 0 -23 9 -36 20 -13 11 -28 23 -34 28
-14 11 -48 25 -57 24 -5 -1 -8 5 -8 13 0 8 -9 15 -20 15 -11 0 -20 6 -20 14 0
8 -11 17 -25 20 -14 4 -25 11 -25 16 0 6 -9 10 -20 10 -11 0 -20 7 -20 15 0 8
-9 15 -20 15 -11 0 -20 7 -20 15 0 9 -9 15 -23 15 -12 0 -34 13 -48 29 -15 17
-38 33 -53 37 -14 3 -26 12 -26 20 0 9 -12 14 -36 14 -22 0 -33 4 -29 11 4 6
-2 13 -14 16 -12 3 -21 12 -21 19 0 10 -13 14 -45 14 -31 0 -44 -4 -43 -12 2
-8 -10 -14 -29 -16 -21 -2 -33 -9 -33 -18 0 -9 -11 -14 -30 -14 -16 0 -33 -7
-37 -15 -5 -8 -19 -16 -32 -18 -12 -2 -26 -8 -29 -14 -4 -6 -20 -15 -35 -18
-15 -4 -27 -11 -27 -15 0 -5 -14 -12 -32 -15 -17 -4 -38 -14 -46 -21 -7 -8
-22 -14 -32 -14 -10 0 -20 -5 -22 -11 -2 -5 -22 -13 -46 -16 -26 -3 -42 -11
-42 -19 0 -9 -11 -14 -30 -14 -20 0 -30 -5 -30 -15 0 -8 -9 -15 -20 -15 -11 0
-20 -6 -20 -14 0 -8 -16 -16 -42 -19 -24 -3 -44 -11 -46 -16 -7 -21 -53 -11
-77 15 -14 15 -25 31 -25 36 0 5 -4 7 -9 4 -5 -4 -12 7 -16 24 -4 16 -13 30
-21 30 -8 0 -14 7 -14 15 0 8 -5 15 -11 15 -15 0 -89 74 -89 89 0 6 -7 11 -15
11 -8 0 -15 7 -15 15 0 8 -7 15 -15 15 -8 0 -15 9 -15 20 0 11 -4 20 -10 20
-5 0 -12 11 -16 25 -3 14 -12 25 -20 25 -8 0 -14 7 -14 15 0 9 -7 18 -15 21
-8 4 -15 12 -15 20 0 8 -6 14 -14 14 -8 0 -17 14 -21 30 -4 17 -13 30 -21 30
-8 0 -14 9 -14 20 0 11 -6 19 -12 18 -8 -2 -14 9 -16 25 -2 15 -9 27 -18 27
-8 0 -14 9 -14 20 0 11 -7 20 -15 20 -8 0 -15 8 -15 18 0 11 -11 39 -25 63
-14 24 -28 50 -31 57 -7 14 27 52 46 52 5 0 10 7 10 15 0 8 7 15 15 15 8 0 15
7 15 15 0 8 7 15 15 15 8 0 15 7 15 15 0 8 6 15 14 15 8 0 17 14 21 30 4 17
13 30 21 30 8 0 14 6 14 14 0 8 7 16 15 20 8 3 15 12 15 21 0 8 7 15 15 15 8
0 15 7 15 15 0 8 6 15 13 15 15 0 37 46 37 76 0 13 -7 29 -15 38 -9 9 -15 33
-15 61 0 36 -3 46 -14 42 -10 -4 -15 7 -19 40 -3 25 -10 49 -17 53 -6 4 -14
26 -17 49 -3 22 -9 41 -14 41 -4 0 -11 16 -15 35 -3 19 -12 35 -18 35 -8 0
-13 16 -14 41 -2 46 -9 62 -23 54 -7 -5 -15 50 -10 78 1 4 -6 10 -14 13 -8 4
-15 18 -16 33 -1 32 -17 74 -19 51 -2 -8 -5 -1 -9 15 -6 29 -8 30 -66 33 -33
2 -63 8 -67 15 -4 7 -46 14 -100 18 -51 3 -84 7 -73 8 l20 2 -20 9 c-11 5 -55
9 -97 9 -62 1 -78 4 -78 16 0 12 -17 15 -95 15 -78 0 -95 3 -95 15 0 11 -11
15 -36 15 -19 0 -42 7 -50 15 -19 18 -44 20 -44 3 0 -9 -3 -8 -10 2 -7 11 -3
18 13 28 21 13 21 13 -5 7 -24 -5 -28 -2 -28 17 0 19 -2 20 -10 8 -9 -13 -10
-13 -10 0 -3 147 -12 325 -17 334 -4 6 -10 0 -14 -14 -4 -14 -7 76 -7 200 0
134 3 217 8 205 5 -12 9 55 9 171 l1 191 62 49 c128 101 161 123 170 118 14
-9 79 6 73 17 -4 5 11 9 33 9 53 0 103 11 97 21 -3 4 26 11 65 15 38 3 68 10
65 14 -5 8 67 20 120 20 20 0 35 6 39 15 4 11 23 15 81 15 60 0 75 3 75 15 0
9 9 15 25 15 21 0 25 5 25 30 0 18 5 30 13 30 8 0 14 15 16 42 1 22 9 50 16
62 8 11 15 35 15 53 0 17 7 38 15 47 8 8 15 30 15 50 0 19 6 41 14 48 8 8 16
40 19 71 5 55 4 59 -32 97 -20 22 -43 40 -49 40 -7 0 -12 7 -12 15 0 8 -7 15
-15 15 -8 0 -15 7 -15 15 0 8 -7 15 -15 15 -8 0 -15 7 -15 15 0 8 -7 15 -15
15 -8 0 -15 7 -15 15 0 8 -7 15 -15 15 -8 0 -15 7 -15 15 0 8 -7 15 -16 15 -9
0 -18 9 -21 20 -3 11 -12 20 -19 20 -8 0 -14 7 -14 15 0 8 -10 23 -22 35 -12
11 -18 20 -12 21 5 0 -1 4 -13 9 -13 5 -23 16 -23 25 0 8 -7 15 -15 15 -8 0
-15 7 -15 15 0 8 -7 15 -15 15 -8 0 -15 7 -15 15 0 8 -7 15 -15 15 -8 0 -15 7
-15 15 0 8 -5 15 -11 15 -15 0 -89 74 -89 89 0 6 -6 10 -12 8 -15 -2 -12 54 2
63 5 3 11 17 15 32 4 15 13 29 21 32 8 3 14 17 14 31 0 16 6 25 15 25 8 0 15
9 15 20 0 11 7 20 15 20 9 0 15 9 15 25 0 14 7 28 15 31 8 4 15 11 15 18 0 6
9 19 20 29 11 9 20 26 20 37 0 11 4 20 9 20 5 0 13 9 16 20 4 12 31 56 61 99
30 44 54 84 54 89 0 5 7 12 15 16 8 3 15 12 15 21 0 8 4 15 9 15 5 0 14 14 20
30 5 17 15 30 20 30 6 0 11 7 11 15 0 8 7 15 15 15 8 0 15 9 15 19 0 11 7 26
15 35 8 8 15 20 15 26 0 6 6 13 14 16 8 3 18 19 21 35 4 16 11 26 16 23 6 -3
13 3 16 15 3 12 12 21 19 21 8 0 14 7 14 15 0 8 5 15 11 15 5 0 15 14 20 30 6
17 14 30 19 30 4 0 10 9 13 21 3 12 10 18 16 14 6 -3 11 1 11 10 0 8 7 18 15
21 8 4 15 12 15 20 0 8 7 14 15 14 8 0 15 6 15 13 0 21 38 47 70 47 20 0 30
-5 30 -15 0 -10 10 -15 30 -15 20 0 30 -5 30 -15 0 -10 11 -15 35 -15 23 0 35
-5 35 -14 0 -8 16 -15 41 -19 23 -3 45 -10 48 -15 3 -5 17 -13 31 -17 14 -4
28 -12 32 -18 3 -6 19 -12 33 -14 15 -2 34 -11 42 -19 8 -7 25 -14 39 -14 13
0 24 -6 24 -13 0 -8 6 -14 13 -14 48 -3 67 -9 67 -20 0 -8 13 -13 35 -13 24 0
35 -5 35 -15 0 -10 10 -15 30 -15 18 0 33 -6 36 -15 5 -11 22 -15 65 -15 46 0
59 3 59 15 0 8 9 15 21 15 11 0 18 4 15 9 -4 5 7 12 24 16 16 4 30 13 30 21 0
8 6 14 13 14 7 0 24 13 37 30 14 16 31 29 38 30 6 0 12 6 12 14 0 8 14 17 30
21 17 4 30 13 30 21 0 8 7 14 15 14 8 0 15 7 15 15 0 8 9 15 20 15 11 0 20 6
20 14 0 7 9 16 20 19 17 4 20 14 20 60 0 40 -4 56 -15 61 -12 4 -15 25 -15
100 0 66 -4 99 -13 108 -9 8 -16 48 -19 101 -3 48 -11 93 -17 101 -7 8 -11 64
-10 152 0 76 -2 150 -6 164 -6 23 2 32 72 81 43 31 99 70 126 88 26 18 47 37
47 44 0 7 4 6 10 -3 6 -9 10 -10 10 -3 0 6 13 14 29 18 16 3 32 13 35 21 3 8
19 14 36 14 20 0 30 5 30 15 0 10 11 15 35 15 24 0 35 5 35 15 0 9 10 15 26
15 14 0 32 7 40 15 9 8 31 15 50 15 22 0 34 5 34 14 0 8 16 15 41 19 23 3 45
10 48 15 3 6 23 13 43 17 21 4 36 11 33 15 -3 5 16 12 42 16 27 4 51 11 55 17
3 6 32 12 64 15 32 3 64 11 72 18 7 8 34 14 61 14 26 0 52 5 59 12 9 9 12 9
12 0 0 -7 9 -12 20 -12 18 0 26 -20 21 -52 0 -5 6 -8 14 -8 8 0 15 -9 15 -20
0 -11 9 -28 20 -37 11 -10 20 -23 20 -30 0 -7 4 -13 9 -13 5 0 12 -13 16 -29
3 -16 13 -32 21 -35 8 -3 14 -17 14 -31 0 -16 6 -25 15 -25 8 0 15 -9 15 -20
0 -11 7 -20 15 -20 10 0 15 -10 15 -30 0 -20 5 -30 15 -30 8 0 15 -9 15 -19 0
-11 8 -27 17 -37 9 -9 19 -26 20 -38 2 -11 10 -24 18 -29 8 -4 15 -13 15 -18
0 -6 7 -17 15 -25 8 -9 15 -24 15 -35 0 -10 7 -19 15 -19 13 0 21 -25 16 -52
0 -5 6 -8 14 -8 8 0 15 -9 15 -20 0 -20 7 -20 400 -20 373 0 401 1 406 18 5
18 24 55 206 412 138 271 174 330 199 330 22 0 27 16 35 115 4 61 10 85 26
102 21 23 21 34 -9 237 -3 27 -2 36 6 32 14 -9 14 9 0 129 -8 74 -7 138 6 288
8 105 19 201 24 212 5 11 14 40 21 65 6 25 15 52 19 60 4 8 6 30 4 48 -2 18 0
32 6 32 6 0 11 7 11 15 0 8 5 15 10 15 6 0 10 7 10 15 0 8 4 15 8 15 4 0 21
23 37 50 16 28 33 50 37 50 4 0 8 7 8 15 0 8 4 15 10 15 5 0 7 6 4 14 -3 7 6
27 20 44 15 16 26 35 26 41 0 6 11 11 25 11 15 0 25 -6 25 -14z m-17830 -1979
c0 -347 -3 -457 -12 -469 -7 -9 -60 -59 -117 -112 l-103 -96 -559 0 -559 0 0
-1373 0 -1374 -77 -72 c-43 -40 -88 -83 -101 -95 -12 -11 -26 -21 -31 -21 -5
0 -13 -3 -17 -7 -4 -4 -14 -3 -21 4 -10 8 -17 9 -21 1 -5 -7 -12 -6 -22 5 -13
14 -12 15 3 9 9 -3 19 -2 21 2 3 5 -5 8 -17 7 -15 -1 -23 -8 -25 -23 -4 -26
-22 -30 -122 -23 l-75 5 -3 88 -3 87 95 0 c52 0 98 4 101 10 4 7 -95 9 -292 8
-164 -1 -252 -4 -195 -5 l102 -4 0 -99 0 -99 -235 0 -235 0 0 1484 0 1485
-675 0 -675 0 0 453 0 452 117 112 118 112 1818 1 1817 0 0 -453z m3906 -7 l1
-455 -110 -105 -109 -105 -1237 -5 -1236 -5 -3 -60 c-5 -101 48 -200 135 -252
l48 -28 1255 -5 1255 -5 3 -445 c1 -245 0 -452 -4 -460 -3 -8 -5 -16 -5 -17 2
-8 -224 -211 -230 -208 -10 7 -2439 6 -2450 0 -15 -10 -10 -118 8 -171 11 -32
34 -66 68 -101 90 -89 -13 -83 1387 -83 l1228 0 0 -455 c0 -427 -1 -455 -17
-455 -13 0 -14 -3 -6 -8 8 -5 -24 -42 -97 -111 l-110 -102 -687 2 c-379 2
-715 5 -748 8 l-60 6 0 47 c0 48 13 65 38 52 7 -3 -1 6 -18 21 -19 16 -23 24
-12 21 14 -5 16 -2 8 11 -8 15 -33 17 -203 19 l-193 3 1 -61 c0 -33 -2 -75 -5
-92 l-7 -31 -88 0 c-48 0 -90 3 -92 6 -2 4 -4 38 -5 75 -1 58 -5 71 -23 84
-27 19 -89 21 -82 3 3 -7 2 -13 -2 -13 -4 0 -7 -11 -7 -24 0 -22 2 -23 16 -10
8 8 22 14 30 13 10 0 10 -2 2 -6 -7 -2 -13 -10 -13 -17 0 -6 -11 -13 -25 -14
-14 -1 -25 3 -25 9 0 5 -4 8 -9 5 -5 -4 -5 9 -1 30 6 27 5 37 -6 41 -33 13
-41 -4 -42 -87 -1 -45 -3 -85 -6 -87 -3 -3 -36 -5 -73 -5 -121 0 -125 0 -121
20 1 9 -1 22 -5 29 -4 6 -4 14 0 16 5 3 6 28 5 56 -3 40 -8 51 -20 50 -11 0
-12 -2 -4 -6 17 -7 15 -20 -9 -44 l-21 -21 22 7 c16 5 21 3 18 -6 -3 -8 -10
-15 -16 -15 -7 -1 -17 -2 -23 -3 -5 0 -7 -5 -4 -11 3 -5 1 -10 -5 -10 -7 0
-14 9 -17 20 -3 11 -13 20 -22 20 -13 0 -13 -2 -2 -9 9 -6 10 -11 2 -15 -6 -4
-9 -12 -5 -17 8 -14 -27 -38 -45 -31 -9 3 -12 1 -7 -6 4 -7 2 -12 -6 -12 -14
0 -18 31 -21 175 l-2 90 -95 47 c-105 53 -104 52 -95 38 10 -17 14 -50 6 -50
-4 0 -7 -25 -7 -57 1 -31 -3 -62 -9 -69 -5 -7 -31 -14 -56 -15 -31 -2 -45 -7
-43 -14 3 -7 -4 -11 -17 -10 -13 1 -25 7 -27 13 -2 7 -10 12 -18 12 -8 0 -11
-6 -8 -15 4 -8 10 -13 14 -10 5 3 11 1 15 -5 14 -23 -24 -8 -40 16 -9 14 -23
23 -30 20 -28 -10 -194 122 -292 235 -219 249 -317 561 -285 901 20 210 91
407 200 551 l51 67 -51 68 c-99 131 -175 324 -197 507 -47 382 66 726 322 987
352 357 476 452 687 526 81 28 204 57 280 65 19 2 604 3 1300 3 l1265 -1 1
-455z m3912 7 l2 -449 -117 -113 -118 -114 -941 -1 c-1031 0 -1028 0 -1174
-59 -95 -39 -134 -71 -186 -152 -163 -251 -209 -619 -118 -937 74 -260 265
-497 489 -606 174 -85 97 -80 1193 -84 l972 -3 0 -454 0 -454 -25 -19 c-14
-11 -68 -61 -122 -111 l-96 -92 -1006 3 c-987 4 -1008 4 -1117 26 -371 73
-654 223 -917 487 -389 389 -587 871 -587 1425 0 532 189 1012 544 1380 259
269 469 452 621 542 204 122 438 200 675 227 41 5 514 8 1050 7 l975 -1 3
-448z m1212 -287 l0 -740 895 0 895 0 0 629 0 629 117 111 118 111 470 -2 470
-3 2 -1935 2 -1935 -121 -112 -121 -113 -468 0 -469 0 0 745 0 745 -895 0
-895 0 0 -634 0 -634 -119 -111 -119 -111 -466 0 -466 0 0 1938 0 1937 112
112 113 113 473 0 472 0 0 -740z m-5077 -468 c-26 -56 -42 -81 -51 -77 -8 3
-28 5 -46 5 l-33 0 81 79 c44 44 82 79 83 77 2 -1 -14 -39 -34 -84z m3707
-837 l0 -725 -842 0 c-464 1 -874 5 -911 9 -133 18 -288 113 -397 244 -59 71
-141 232 -167 327 -23 85 -25 396 -4 480 19 74 65 183 103 247 27 44 41 56 97
81 36 16 77 33 91 38 14 4 468 10 1010 14 542 3 993 7 1003 8 16 2 17 -38 17
-723z m-6710 -1745 c0 -4 -11 -7 -25 -7 -18 0 -25 5 -25 18 0 16 3 17 25 7 14
-6 25 -14 25 -18z m-67 -5 c-3 -9 -8 -14 -10 -11 -3 3 -2 9 2 15 9 16 15 13 8
-4z m84 -10 c0 -8 -4 -15 -8 -15 -14 0 -20 -34 -7 -42 11 -6 11 -8 0 -8 -7 0
-16 10 -21 22 -6 17 -3 26 13 40 12 9 21 17 22 18 0 0 1 -7 1 -15z m-12 -94
c2 -4 -7 -7 -19 -7 -12 0 -23 5 -23 12 0 11 34 7 42 -5z m1095 -31 c0 -5 -10
-10 -22 -9 -22 0 -22 1 -3 9 11 5 21 9 23 9 1 1 2 -3 2 -9z m-593 -20 c1 -11
-2 -20 -6 -20 -5 0 -11 9 -14 20 -3 12 0 20 7 20 6 0 12 -9 13 -20z m83 10 c0
-5 -4 -10 -10 -10 -5 0 -10 5 -10 10 0 6 5 10 10 10 6 0 10 -4 10 -10z m-770
-4 c0 -3 -4 -8 -10 -11 -5 -3 -10 -1 -10 4 0 6 5 11 10 11 6 0 10 -2 10 -4z
m-36 -27 c-8 -14 -24 -10 -24 6 0 9 6 12 15 9 8 -4 12 -10 9 -15z m71 11 c-3
-5 -11 -10 -16 -10 -6 0 -7 5 -4 10 3 6 11 10 16 10 6 0 7 -4 4 -10z m365
-121 c0 -5 -6 -9 -14 -9 -15 0 -27 22 -31 54 -2 16 2 15 22 -8 12 -15 23 -31
23 -37z m30 41 c-6 -11 -15 -18 -21 -14 -6 4 -6 11 2 20 17 21 31 17 19 -6z
m-75 -40 c3 -5 1 -10 -4 -10 -6 0 -11 5 -11 10 0 6 2 10 4 10 3 0 8 -4 11 -10z
m80 0 c3 -5 2 -10 -4 -10 -5 0 -13 5 -16 10 -3 6 -2 10 4 10 5 0 13 -4 16 -10z
m19361 -690 c0 -24 -3 -24 -21 -6 -15 14 -10 26 10 26 6 0 11 -9 11 -20z
m-2000 -3107 c-10 -11 -37 -12 -30 -2 3 5 12 9 21 9 9 0 13 -3 9 -7z m39 -13
c-3 -5 -12 -10 -18 -10 -7 0 -6 4 3 10 19 12 23 12 15 0z m-555 -350 c0 -5
-10 -10 -22 -10 -19 0 -20 2 -8 10 19 13 30 13 30 0z m-2255 -510 c7 -12 -2
-12 -30 0 -19 8 -19 9 2 9 12 1 25 -3 28 -9z"/>
<path d="M26070 19500 c0 -5 4 -10 9 -10 6 0 13 5 16 10 3 6 -1 10 -9 10 -9 0
-16 -4 -16 -10z"/>
<path d="M25782 19480 c0 -14 2 -19 5 -12 2 6 2 18 0 25 -3 6 -5 1 -5 -13z"/>
<path d="M26090 19424 c0 -8 5 -12 10 -9 6 4 8 11 5 16 -9 14 -15 11 -15 -7z"/>
<path d="M25791 19414 c0 -11 3 -14 6 -6 3 7 2 16 -1 19 -3 4 -6 -2 -5 -13z"/>
<path d="M25751 19294 c0 -11 3 -14 6 -6 3 7 2 16 -1 19 -3 4 -6 -2 -5 -13z"/>
<path d="M26050 19270 c-8 -5 -12 -11 -9 -14 3 -3 14 1 25 9 21 16 8 20 -16 5z"/>
<path d="M24778 18629 c-2 -7 -36 -14 -81 -17 -42 -2 -77 -8 -77 -13 0 -9 -41
-18 -102 -21 -28 -1 -49 -7 -52 -15 -3 -8 -22 -13 -51 -13 -33 0 -45 -4 -45
-15 0 -10 -11 -15 -35 -15 -23 0 -35 -5 -35 -14 0 -8 -16 -15 -41 -19 -23 -3
-45 -10 -48 -15 -3 -6 -18 -13 -33 -17 -15 -4 -29 -13 -32 -21 -3 -8 -16 -14
-30 -14 -13 0 -26 -7 -30 -15 -3 -8 -12 -15 -21 -15 -8 0 -15 -7 -15 -15 0
-10 -10 -15 -30 -15 -19 0 -30 -5 -30 -14 0 -7 -9 -16 -21 -19 -12 -3 -18 -10
-14 -16 3 -7 -2 -11 -14 -11 -13 0 -21 -7 -21 -17 0 -14 -2 -15 -9 -5 -7 11
-9 11 -14 -2 -4 -9 -11 -15 -16 -14 -5 2 -20 -9 -34 -24 -14 -15 -37 -30 -51
-34 -14 -3 -26 -12 -26 -20 0 -8 -7 -14 -15 -14 -8 0 -15 -7 -15 -15 0 -8 -7
-15 -15 -15 -8 0 -15 -5 -15 -11 0 -7 -15 -27 -32 -44 -50 -49 -72 -77 -85
-107 -7 -16 -17 -28 -23 -28 -5 0 -10 -6 -10 -14 0 -7 -7 -19 -15 -26 -8 -7
-15 -28 -15 -46 0 -23 -5 -34 -14 -34 -9 0 -16 -12 -18 -32 -2 -20 -8 -32 -15
-31 -8 2 -13 -10 -14 -32 -2 -51 -3 -55 -15 -63 -6 -4 -14 -27 -17 -51 -3 -24
-10 -47 -15 -50 -6 -3 -13 -37 -17 -76 -4 -38 -13 -73 -19 -77 -16 -11 -16
-616 1 -626 6 -4 15 -42 19 -84 4 -43 10 -75 14 -73 9 6 20 -30 20 -66 0 -15
7 -29 15 -33 8 -3 15 -9 14 -13 -1 -4 -1 -25 0 -45 1 -27 6 -38 16 -38 10 0
15 -11 15 -35 0 -24 5 -35 15 -35 10 0 15 -10 15 -29 0 -16 7 -36 15 -45 8 -8
15 -22 15 -30 0 -9 6 -16 14 -16 9 0 16 -12 18 -32 2 -18 8 -32 14 -31 7 1 14
-11 18 -28 3 -17 13 -37 21 -45 8 -9 15 -24 15 -35 0 -10 7 -19 15 -19 8 0 15
-7 15 -15 0 -9 7 -18 15 -21 8 -4 15 -17 15 -30 0 -14 6 -24 14 -24 7 0 16 -9
19 -21 3 -12 10 -18 16 -14 6 3 11 -1 11 -10 0 -8 7 -18 15 -21 8 -4 15 -12
15 -20 0 -8 7 -14 15 -14 8 0 15 -7 15 -15 0 -8 7 -15 15 -15 8 0 15 -6 15
-13 0 -7 14 -25 31 -40 17 -15 29 -27 25 -27 -3 0 16 -21 42 -48 28 -28 50
-43 54 -37 5 6 8 3 8 -7 0 -11 8 -18 20 -18 11 0 20 -7 20 -15 0 -8 7 -15 15
-15 8 0 15 -6 15 -14 0 -8 12 -17 26 -20 14 -4 36 -18 48 -31 12 -13 34 -27
48 -30 15 -4 29 -13 32 -21 3 -8 12 -14 21 -14 8 0 15 -7 15 -15 0 -10 10 -15
30 -15 20 0 30 -5 30 -15 0 -8 9 -15 19 -15 11 0 26 -6 33 -14 8 -7 29 -17 46
-21 18 -3 30 -10 27 -15 -3 -4 11 -11 30 -14 19 -4 35 -11 35 -16 0 -4 15 -12
33 -15 17 -4 35 -12 39 -18 3 -6 31 -12 62 -15 39 -3 56 -9 56 -18 0 -10 16
-14 64 -14 43 0 66 -4 68 -12 3 -9 38 -15 108 -18 68 -4 105 -10 108 -18 6
-19 331 -16 356 3 13 10 45 15 95 15 42 0 94 7 116 15 22 8 59 14 81 15 24 0
47 6 54 15 7 8 29 15 49 15 37 0 82 18 51 21 -8 1 5 5 30 10 25 5 46 13 48 19
2 5 19 12 38 16 19 3 34 10 34 14 0 4 12 11 26 14 15 4 33 14 41 21 8 8 23 15
34 15 10 0 19 7 19 15 0 10 10 15 30 15 20 0 30 5 30 15 0 8 9 15 20 15 11 0
20 7 20 15 0 8 9 15 19 15 11 0 26 7 35 15 8 8 18 15 23 15 5 0 16 9 26 20 9
11 24 20 32 20 8 0 15 7 15 15 0 8 9 15 20 15 11 0 20 7 20 15 0 8 7 15 15 15
8 0 15 6 15 14 0 7 9 16 21 19 12 3 18 10 15 16 -3 5 7 12 24 16 16 4 30 13
30 21 0 8 7 14 15 14 8 0 15 7 15 15 0 8 7 15 15 15 8 0 15 7 15 15 0 8 9 24
20 35 11 11 20 25 20 30 0 6 6 10 13 10 6 0 17 10 23 23 27 55 50 93 62 100 6
4 12 19 12 33 0 14 7 32 15 40 9 10 15 34 15 65 0 35 4 49 14 49 9 0 15 16 19
46 2 26 9 49 14 53 6 3 13 37 17 76 4 38 12 73 19 77 17 11 17 626 0 636 -7 4
-16 41 -19 82 -4 41 -12 78 -17 82 -6 3 -12 31 -15 62 -3 39 -9 56 -18 56 -8
0 -14 -4 -14 -10 0 -5 -7 -10 -15 -10 -8 0 -15 -5 -15 -11 0 -15 -26 -39 -34
-32 -3 4 -6 1 -6 -5 0 -7 -7 -12 -15 -12 -8 0 -15 -6 -15 -14 0 -18 -23 -27
-41 -15 -8 5 -18 9 -24 9 -8 0 -114 -87 -230 -188 -16 -15 -35 -26 -40 -24 -6
1 -15 -8 -20 -20 -6 -12 -15 -23 -20 -25 -15 -5 -16 38 -2 56 9 11 9 15 -1 18
-6 3 -10 9 -7 14 4 5 -1 6 -10 3 -8 -4 -21 -2 -28 4 -6 5 -50 15 -97 22 -47 7
-92 15 -100 18 -58 21 -65 15 -74 -53 -8 -64 -26 -200 -30 -221 -2 -10 -7 -47
-11 -81 -4 -37 -12 -63 -18 -63 -8 0 -8 -3 1 -8 8 -6 10 -19 6 -41 -4 -20 -10
-28 -14 -21 -4 7 -7 -5 -6 -26 1 -42 0 -43 -85 -33 -28 3 -59 49 -33 49 8 0
14 5 14 12 0 6 3 8 6 5 4 -4 2 -13 -5 -21 -10 -11 -7 -14 14 -12 29 1 28 1 14
27 -7 14 -7 24 0 33 6 7 8 15 5 18 -3 3 8 10 25 16 22 8 31 7 35 -1 3 -9 5 -9
5 -1 1 7 -11 20 -26 30 -24 15 -26 15 -14 1 12 -15 10 -17 -18 -17 -21 0 -31
5 -31 15 0 8 3 15 8 15 9 0 10 145 1 154 -4 4 -4 -5 -1 -19 4 -21 1 -24 -13
-18 -13 4 -16 3 -11 -5 4 -7 2 -12 -4 -12 -7 0 -9 8 -5 20 6 18 3 19 -24 14
-26 -6 -31 -4 -31 14 0 13 9 22 24 26 13 3 26 14 28 23 8 31 -3 93 -17 93 -13
0 -27 35 -17 44 3 3 12 6 21 6 14 0 14 -2 1 -10 -13 -9 -13 -11 0 -20 23 -15
29 -12 22 12 -3 13 -1 19 5 15 6 -4 17 1 24 11 13 15 12 16 -3 3 -16 -12 -18
-11 -18 3 0 13 -5 14 -27 5 -16 -5 -39 -21 -52 -35 -12 -14 -26 -23 -29 -19
-4 3 0 10 8 15 10 7 11 10 3 10 -7 0 -13 6 -13 14 0 13 -20 26 -39 26 -4 0 -7
-10 -7 -22 1 -18 -5 -23 -31 -25 -26 -2 -30 0 -26 16 7 28 43 63 58 57 8 -3
19 2 25 10 10 12 7 15 -19 20 -39 8 -49 23 -28 39 17 12 24 31 9 21 -4 -2 -9
4 -9 15 -2 24 5 24 27 -1 16 -19 17 -18 30 15 18 46 30 44 31 -2 0 -37 0 -38
16 -15 8 12 20 22 25 22 10 0 38 25 38 34 0 10 75 81 83 78 4 -1 7 4 7 11 0 8
10 18 23 24 20 9 16 11 -31 22 -29 6 -61 11 -70 11 -32 1 -52 26 -52 66 0 37
17 143 28 174 3 8 4 23 3 33 -1 9 3 17 10 17 8 0 9 3 0 13 -6 8 -8 17 -4 20
16 17 -16 5 -37 -13 -13 -11 -28 -20 -34 -20 -14 0 -38 -38 -31 -50 3 -5 1
-11 -5 -15 -5 -3 -10 -1 -10 4 0 6 -11 11 -25 11 -14 0 -25 -6 -25 -13 0 -8
-7 -14 -15 -14 -18 0 -20 13 -2 20 10 4 10 6 0 6 -7 1 -13 5 -13 10 0 6 9 8
20 6 16 -3 19 1 18 22 -3 28 -30 43 -78 43 -24 0 -29 5 -35 36 -3 21 -2 40 3
43 11 7 21 84 21 159 0 34 4 52 12 52 8 0 10 15 6 53 -4 30 -3 46 2 38 5 -8
11 33 16 103 5 77 10 114 18 109 7 -4 8 12 3 51 -4 34 -3 55 3 52 5 -3 11 17
13 44 2 31 -1 49 -7 46 -5 -2 -18 1 -28 6 -35 18 -130 38 -149 32 -10 -3 -24
-1 -31 4 -7 5 -48 12 -92 14 -46 3 -81 10 -83 17 -3 8 -72 11 -237 11 -165 0
-234 -3 -237 -11z m520 -234 c31 -8 68 -15 82 -15 l26 0 -43 -347 c-24 -192
-45 -354 -48 -360 -2 -7 -24 -18 -49 -24 -25 -6 -61 -26 -83 -46 -21 -19 -56
-49 -78 -66 -22 -17 -60 -50 -85 -74 -25 -23 -59 -53 -75 -65 -27 -20 -98 -86
-211 -194 -18 -17 -64 -57 -104 -89 -39 -32 -74 -63 -78 -69 -4 -7 -46 -41
-93 -76 -164 -124 -235 -184 -339 -290 -58 -58 -127 -124 -155 -145 -27 -21
-64 -52 -81 -69 -17 -17 -52 -46 -78 -64 l-46 -33 -25 58 c-15 32 -30 67 -36
78 -38 80 -99 292 -99 343 0 21 -7 64 -15 95 -9 34 -15 102 -15 162 0 60 6
128 15 162 8 31 15 74 15 95 0 20 6 61 14 90 20 73 77 241 86 253 4 6 15 33
24 62 10 28 24 57 32 63 7 7 14 17 14 24 0 14 161 176 175 176 6 0 33 20 62
45 28 25 55 45 59 45 4 0 23 12 43 28 45 34 57 41 161 93 47 23 110 54 140 69
76 38 286 86 435 100 116 11 386 2 453 -15z m422 -746 c0 -5 -5 -7 -11 -3 -17
10 -4 -94 14 -107 4 -3 3 -18 -2 -32 -7 -19 -18 -27 -34 -27 -20 0 -23 4 -19
30 2 17 8 30 12 30 4 0 6 23 3 51 -4 37 -1 54 9 60 18 12 28 11 28 -2z m-224
-164 c3 -19 3 -43 -2 -52 -4 -10 -7 -24 -7 -30 2 -77 4 -83 18 -83 9 0 15 6
14 13 -4 29 2 47 15 47 16 0 66 59 66 77 0 17 57 21 92 6 18 -8 34 -14 36 -14
17 4 32 -1 27 -10 -4 -6 -13 -8 -21 -5 -8 3 -11 0 -7 -10 3 -9 -1 -14 -14 -14
-17 0 -50 -37 -45 -52 1 -3 -5 -11 -12 -17 -12 -10 -13 -6 -6 24 8 36 8 37
-18 30 -15 -3 -32 -13 -38 -21 -16 -20 -23 -17 -18 9 l5 22 -10 -22 c-6 -13
-15 -23 -21 -23 -6 0 -9 -3 -6 -8 6 -11 -15 -35 -46 -51 -15 -8 -26 -19 -25
-25 1 -6 -6 -10 -16 -8 -9 2 -20 -4 -23 -13 -3 -8 -12 -15 -20 -15 -8 0 -14
-5 -14 -11 0 -6 -7 -17 -15 -25 -8 -9 -15 -13 -15 -9 0 4 -13 -6 -30 -22 -44
-42 -58 -53 -68 -53 -14 0 -52 -36 -52 -49 0 -6 -4 -11 -10 -11 -5 0 -10 -7
-10 -15 0 -9 -9 -15 -25 -15 -14 0 -25 2 -25 5 0 5 26 39 52 66 9 9 14 20 11
23 -4 3 -1 6 5 6 7 0 12 5 12 10 0 6 -6 10 -13 10 -8 0 -14 6 -14 14 0 8 6 12
13 9 14 -5 38 32 30 50 -2 7 -5 4 -5 -5 -1 -27 -18 -22 -23 7 -3 13 -1 22 3
19 5 -3 9 0 9 5 0 6 -4 11 -10 11 -5 0 -2 13 8 29 9 16 21 27 27 25 6 -3 17 8
24 23 9 19 15 23 20 14 6 -9 10 -5 13 13 4 19 1 26 -11 26 -13 0 -14 2 -2 9 8
5 20 7 28 4 15 -6 60 36 55 51 -2 4 4 6 13 3 10 -5 15 0 15 14 0 11 4 17 10
14 5 -3 15 3 22 15 20 32 46 25 54 -15z m-146 -59 c0 -11 -19 -15 -25 -6 -3 5
1 10 9 10 9 0 16 -2 16 -4z m400 -58 c0 -19 -2 -20 -10 -8 -8 11 -12 12 -18 3
-5 -8 -13 -9 -22 -3 -13 8 -12 10 3 10 9 0 17 5 17 10 0 6 7 10 15 10 9 0 15
-9 15 -22z m-450 8 c0 -2 -7 -6 -15 -10 -8 -3 -15 -1 -15 4 0 6 7 10 15 10 8
0 15 -2 15 -4z m-93 -92 c-3 -3 -12 -4 -19 -1 -8 3 -5 6 6 6 11 1 17 -2 13 -5z
m503 2 c0 -2 -7 -7 -16 -10 -8 -3 -12 -2 -9 4 6 10 25 14 25 6z m-553 -32 c-3
-3 -12 -4 -19 -1 -8 3 -5 6 6 6 11 1 17 -2 13 -5z m-27 -70 c0 -9 -5 -12 -12
-8 -7 4 -8 3 -4 -4 4 -6 13 -9 21 -6 12 5 14 -10 5 -36 -1 -3 -1 -22 0 -42 1
-22 -3 -38 -9 -38 -6 0 -10 5 -8 11 1 6 -6 13 -15 14 -10 2 -15 -2 -11 -10 4
-11 0 -12 -21 -2 -14 7 -21 14 -16 15 6 2 10 10 10 18 0 11 4 12 19 4 12 -6
22 -6 26 -1 3 5 -4 12 -15 16 -11 3 -20 11 -20 16 0 13 18 11 23 -3 2 -7 7
-11 10 -8 4 3 0 19 -8 34 -8 15 -12 32 -9 37 9 15 34 10 34 -7z m517 -141 c-3
-3 -11 -2 -17 2 -9 6 -9 10 1 16 14 8 27 -7 16 -18z m637 12 c3 -9 0 -15 -9
-15 -8 0 -15 -4 -15 -10 0 -5 7 -10 15 -10 16 0 20 -12 8 -24 -5 -4 -8 -17 -8
-29 0 -14 -7 -23 -20 -25 -15 -2 -17 -1 -6 6 10 7 10 14 3 29 -8 14 -8 23 0
31 9 9 9 12 -1 12 -11 0 -11 3 -1 15 6 8 9 19 5 25 -3 5 0 10 8 10 8 0 17 -7
21 -15z m-1208 -32 c4 -10 6 -22 5 -28 -1 -5 8 2 20 17 18 24 22 26 35 14 12
-13 9 -19 -20 -50 -18 -20 -38 -36 -45 -36 -6 0 -11 -6 -11 -13 0 -7 -10 -19
-22 -27 -12 -8 -29 -22 -38 -31 -9 -8 -24 -18 -33 -22 -9 -3 -17 -11 -17 -17
0 -5 -5 -10 -10 -10 -6 0 -30 -19 -52 -42 -23 -24 -50 -44 -61 -44 -17 -1 -18
4 -11 50 3 28 8 58 10 66 1 8 3 25 3 38 1 16 5 21 14 16 7 -5 6 0 -3 11 -14
17 -13 18 3 12 19 -7 22 0 8 22 -16 25 14 43 61 37 135 -17 158 -17 158 -1 0
8 -4 15 -8 15 -4 0 -8 9 -9 20 -2 25 12 26 23 3z m718 -19 c8 -22 -4 -40 -15
-23 -11 18 -11 39 0 39 5 0 12 -7 15 -16z m665 14 c-2 -2 -22 -19 -44 -38
l-40 -35 34 38 c19 20 39 37 45 37 5 0 7 -1 5 -2z m-683 -51 c21 -21 21 -23 3
-23 -10 0 -19 6 -19 13 0 7 -7 13 -15 13 -8 0 -15 5 -15 10 0 17 24 11 46 -13z
m593 -29 c-2 -2 -31 -28 -64 -58 l-60 -55 59 62 c33 34 62 60 65 58 2 -3 2 -6
0 -7z m-875 -39 c-3 -5 -11 -8 -18 -7 -6 2 -12 -1 -13 -6 -2 -11 -54 -38 -61
-31 -3 2 0 11 6 18 7 8 9 17 5 21 -4 4 -2 10 5 15 16 10 83 1 76 -10z m1194
-38 c17 -56 15 -192 -3 -228 -8 -17 -17 -59 -20 -94 -8 -87 -26 -179 -42 -209
-7 -14 -13 -31 -13 -39 0 -15 -27 -101 -47 -148 -7 -17 -13 -39 -13 -50 0 -10
-9 -29 -20 -43 -11 -14 -20 -29 -20 -35 -2 -21 -99 -117 -189 -185 l-93 -71 6
73 c4 40 11 120 16 178 5 58 17 177 26 265 8 88 18 191 21 230 5 62 9 74 44
115 82 96 298 280 330 280 3 0 11 -17 17 -39z m-570 -49 c-13 -19 -18 -22 -37
-22 -5 0 -11 -7 -13 -17 -3 -14 -5 -14 -18 2 -8 11 -10 16 -3 12 6 -4 18 1 26
13 7 11 16 17 20 14 3 -3 12 4 19 15 7 12 14 17 16 11 2 -5 -2 -18 -10 -28z
m-288 24 c0 -2 -6 -9 -13 -15 -10 -8 -14 -7 -14 4 0 8 6 15 14 15 7 0 13 -2
13 -4z m409 -19 c-2 -1 -15 -11 -29 -22 l-25 -20 19 23 c11 12 24 22 29 22 6
0 8 -1 6 -3z m-414 -56 c-3 -6 -11 -8 -17 -5 -6 4 -5 9 3 15 16 10 23 4 14
-10z m254 -179 c0 -33 -3 -41 -8 -27 -8 20 -21 -70 -21 -147 0 -22 -4 -37 -9
-34 -4 3 -6 -22 -3 -56 3 -39 1 -58 -6 -54 -11 7 -22 -68 -23 -154 0 -30 -2
-49 -5 -42 -13 30 -19 5 -22 -91 -1 -56 -7 -103 -12 -105 -5 -2 -6 -25 -3 -52
3 -27 2 -57 -2 -67 -4 -10 -9 -55 -10 -101 -1 -45 -6 -87 -12 -93 -24 -24
-318 -84 -508 -103 l-51 -5 1 47 c0 26 3 52 6 57 4 6 10 51 14 101 8 102 -1
136 -34 127 -21 -5 -35 -29 -25 -44 3 -5 -2 -9 -11 -9 -11 0 -15 -5 -11 -15 3
-9 0 -15 -9 -15 -9 0 -15 -10 -15 -25 0 -14 -4 -25 -10 -25 -5 0 -10 -7 -10
-15 0 -8 -4 -15 -10 -15 -5 0 -10 -7 -10 -15 0 -8 -4 -15 -10 -15 -5 0 -10
-11 -10 -25 0 -14 -4 -25 -10 -25 -5 0 -10 -7 -10 -15 0 -8 -4 -15 -10 -15 -5
0 -10 -11 -10 -24 0 -26 -27 -43 -44 -26 -8 8 -7 13 1 18 7 5 10 24 8 47 -2
22 1 43 7 46 15 10 16 87 1 109 -13 18 -12 20 6 20 14 0 21 6 21 20 0 11 5 20
10 20 5 0 9 5 7 12 -1 7 9 14 23 17 20 5 25 12 26 36 0 17 3 50 7 75 4 25 10
64 13 87 6 41 22 65 63 93 11 8 21 20 21 27 0 7 11 13 25 13 15 0 25 6 25 15
0 8 11 17 25 21 14 3 22 10 19 15 -3 5 2 9 10 9 9 0 16 7 16 15 0 9 9 15 25
15 14 0 25 5 25 10 0 16 38 50 56 50 14 0 16 -8 10 -47 -21 -152 -21 -157 1
-151 13 4 27 -2 38 -14 12 -15 26 -19 56 -16 21 2 39 -1 39 -6 0 -8 41 -4 100
10 20 4 22 3 10 -5 -13 -10 -13 -12 0 -21 8 -6 26 -9 40 -8 14 1 30 -1 36 -4
5 -4 16 2 23 14 7 11 8 17 2 13 -14 -8 -14 8 0 22 8 8 7 17 -1 34 -7 13 -9 21
-5 16 11 -10 34 59 28 83 -3 11 -9 17 -14 14 -5 -3 -9 0 -9 5 0 6 7 11 16 11
9 0 18 9 21 20 3 11 9 17 14 14 5 -3 9 2 9 10 0 9 -8 16 -19 16 -11 0 -27 3
-37 7 -13 5 -15 3 -9 -8 6 -11 5 -11 -5 -2 -14 13 -40 7 -40 -9 0 -6 6 -8 13
-5 8 3 14 -1 14 -8 0 -8 -3 -14 -6 -13 -13 1 -51 -15 -51 -21 0 -3 4 -12 9
-19 6 -11 11 -10 25 3 9 9 16 12 16 6 0 -5 -13 -18 -30 -28 -32 -19 -43 -63
-15 -63 8 0 15 -4 15 -10 0 -5 6 -10 13 -10 19 0 21 -66 2 -74 -17 -6 -19 7
-5 34 14 26 -6 37 -29 16 -25 -22 -55 -21 -46 2 8 19 9 25 7 70 -2 29 -5 32
-30 30 -15 -1 -33 1 -40 6 -17 10 -15 43 4 50 11 4 15 14 12 31 -4 17 -1 25 9
25 8 0 11 -5 7 -12 -4 -7 -3 -8 5 -4 6 4 9 12 6 17 -4 5 -2 9 4 9 5 0 11 -6
14 -12 2 -8 8 -9 13 -4 5 5 4 11 -4 13 -6 3 -9 9 -6 15 4 6 -2 6 -14 -1 -27
-14 -29 -14 -36 5 -4 10 -2 13 6 8 7 -5 9 0 5 15 -3 12 1 28 10 36 13 13 12
15 -4 16 -10 0 -13 3 -5 6 6 2 10 9 6 14 -3 5 2 9 11 9 9 0 14 4 11 9 -3 5 5
12 19 15 14 4 25 13 25 21 0 15 34 30 49 20 6 -3 15 14 21 37 6 24 12 47 14
52 1 5 19 14 40 20 21 6 37 15 36 19 -2 13 41 47 51 41 5 -3 9 -26 8 -52z
m-484 -30 c-8 -8 -25 10 -19 20 4 6 9 5 15 -3 4 -7 6 -15 4 -17z m52 6 c-3 -8
-6 -5 -6 6 -1 11 2 17 5 13 3 -3 4 -12 1 -19z m-30 -70 c-3 -8 -6 -5 -6 6 -1
11 2 17 5 13 3 -3 4 -12 1 -19z m7 -96 c-4 -40 -12 -63 -22 -67 -18 -7 -31 3
-16 13 6 4 10 15 8 24 -1 10 2 21 7 24 6 4 6 10 0 18 -7 9 -6 19 5 35 23 32
26 22 18 -47z m-54 42 c0 -8 -5 -12 -10 -9 -6 4 -8 11 -5 16 9 14 15 11 15 -7z
m-33 -26 c-3 -8 -6 -5 -6 6 -1 11 2 17 5 13 3 -3 4 -12 1 -19z m23 -32 c0 -3
-4 -8 -10 -11 -5 -3 -10 -1 -10 4 0 6 5 11 10 11 6 0 10 -2 10 -4z m400 -224
c0 -10 -7 -27 -16 -38 -8 -10 -12 -13 -9 -6 4 7 -1 23 -12 34 -18 21 -18 21 5
9 18 -10 22 -9 22 4 0 8 2 15 5 15 3 0 5 -8 5 -18z m-200 1 c0 -5 -5 -15 -10
-23 -8 -12 -10 -11 -10 8 0 12 5 22 10 22 6 0 10 -3 10 -7z m58 -48 c-1 -19
-6 -35 -10 -35 -4 0 -8 -6 -8 -14 0 -20 -12 -26 -39 -19 -21 5 -24 30 -3 26
11 -3 33 29 31 44 -4 21 2 33 16 33 12 0 15 -9 13 -35z m-85 5 c3 -11 1 -18
-4 -14 -5 3 -9 12 -9 20 0 20 7 17 13 -6z m-64 -47 c-7 -10 -15 -20 -16 -22
-2 -2 -3 5 -3 17 0 14 6 22 16 22 14 0 15 -3 3 -17z m-509 -404 c0 -6 -4 -7
-10 -4 -5 3 -10 1 -10 -5 0 -6 -11 -21 -25 -34 -14 -13 -25 -28 -25 -35 0 -6
-4 -11 -10 -11 -5 0 -10 -9 -10 -21 0 -11 -4 -17 -10 -14 -5 3 -10 -1 -10 -9
0 -9 -5 -16 -11 -16 -7 0 -9 -9 -6 -21 5 -20 3 -21 -41 -14 -62 9 -65 12 -42
37 11 12 20 25 20 30 0 4 11 10 25 14 14 3 22 10 19 16 -3 5 3 12 15 15 11 3
18 9 15 14 -5 8 12 13 43 12 7 -1 10 3 7 8 -3 5 7 20 23 33 27 23 43 25 43 5z"/>
<path d="M25285 17270 c4 -6 11 -8 16 -5 14 9 11 15 -7 15 -8 0 -12 -5 -9 -10z"/>
<path d="M25260 17244 c0 -8 5 -12 10 -9 6 3 10 10 10 16 0 5 -4 9 -10 9 -5 0
-10 -7 -10 -16z"/>
<path d="M25285 17230 c-3 -5 -3 -14 0 -20 3 -5 1 -10 -4 -10 -6 0 -11 -4 -11
-10 0 -5 6 -10 13 -10 8 0 13 12 12 30 0 33 -1 35 -10 20z"/>
<path d="M25900 16419 c0 -11 5 -17 10 -14 6 3 10 13 10 21 0 8 -4 14 -10 14
-5 0 -10 -9 -10 -21z"/>
<path d="M25826 16374 c-4 -9 -2 -13 5 -8 8 4 9 -1 4 -16 -5 -16 -3 -21 6 -18
18 6 23 58 5 58 -7 0 -17 -7 -20 -16z"/>
<path d="M25875 16370 c3 -5 8 -10 11 -10 2 0 4 5 4 10 0 6 -5 10 -11 10 -5 0
-7 -4 -4 -10z"/>
<path d="M25800 16340 c-9 -6 -10 -10 -3 -10 6 0 15 5 18 10 8 12 4 12 -15 0z"/>
<path d="M25880 16333 c-8 -4 -20 -12 -27 -19 -10 -10 -9 -13 3 -18 22 -9 24
-8 24 12 0 14 2 15 10 2 8 -12 10 -11 10 8 0 12 -1 22 -2 21 -2 0 -10 -3 -18
-6z"/>
<path d="M25836 16177 c3 -10 9 -15 12 -12 3 3 0 11 -7 18 -10 9 -11 8 -5 -6z"/>
<path d="M26050 18156 c0 -17 14 -29 23 -20 8 8 -3 34 -14 34 -5 0 -9 -6 -9
-14z"/>
<path d="M25900 17850 c0 -5 5 -10 10 -10 6 0 10 5 10 10 0 6 -4 10 -10 10 -5
0 -10 -4 -10 -10z"/>
<path d="M25850 17816 c0 -8 -4 -16 -9 -18 -5 -1 -2 -10 7 -18 14 -13 15 -12
10 2 -4 10 -1 19 8 22 19 7 18 26 -1 26 -8 0 -15 -6 -15 -14z"/>
<path d="M25837 17726 c-4 -10 -1 -13 8 -9 8 3 12 9 9 14 -7 12 -11 11 -17 -5z"/>
<path d="M26009 17315 c-1 -3 -2 -9 -3 -14 0 -5 -5 -13 -10 -18 -5 -5 -6 -3
-2 5 4 6 2 12 -3 12 -6 0 -11 -7 -11 -15 0 -9 -13 -18 -31 -22 -17 -3 -33 -12
-36 -19 -3 -8 -11 -14 -19 -14 -7 0 -24 -11 -38 -25 -14 -14 -30 -25 -36 -25
-17 0 -11 -18 8 -24 9 -3 54 -8 99 -12 92 -7 88 -10 97 66 4 25 9 60 12 78 5
25 3 32 -10 32 -9 0 -17 -2 -17 -5z"/>
<path d="M26359 17204 c-9 -11 -9 -18 -1 -26 14 -14 42 -3 42 16 0 20 -27 27
-41 10z"/>
<path d="M25640 17104 c0 -8 5 -12 10 -9 6 4 8 11 5 16 -9 14 -15 11 -15 -7z"/>
<path d="M26373 17073 c-15 -5 -17 -23 -4 -23 5 0 11 7 15 15 3 8 4 15 3 14
-1 0 -8 -3 -14 -6z"/>
<path d="M25770 16900 c0 -5 6 -10 14 -10 8 0 18 5 21 10 3 6 -3 10 -14 10
-12 0 -21 -4 -21 -10z"/>
<path d="M25860 16840 c0 -5 5 -10 10 -10 6 0 10 5 10 10 0 6 -4 10 -10 10 -5
0 -10 -4 -10 -10z"/>
<path d="M25888 16839 c-6 -59 -5 -66 13 -62 17 5 17 7 2 21 -14 15 -14 16 2
22 15 5 16 7 1 19 -13 11 -16 11 -18 0z"/>
<path d="M25885 16691 c3 -5 -1 -11 -7 -14 -7 -2 -10 -8 -6 -12 4 -4 14 -1 22
8 14 13 14 16 0 21 -8 3 -13 2 -9 -3z"/>
<path d="M28746 16347 c3 -10 9 -15 12 -12 3 3 0 11 -7 18 -10 9 -11 8 -5 -6z"/>
<path d="M28578 16313 c-10 -2 -18 -8 -18 -13 0 -4 9 -6 20 -3 11 3 20 9 20
14 0 5 -1 8 -2 8 -2 -1 -11 -3 -20 -6z"/>
<path d="M21050 16170 c0 -6 7 -10 15 -10 8 0 15 2 15 4 0 2 -7 6 -15 10 -8 3
-15 1 -15 -4z"/>
<path d="M21060 16140 c0 -5 7 -7 15 -4 8 4 15 8 15 10 0 2 -7 4 -15 4 -8 0
-15 -4 -15 -10z"/>
<path d="M26571 13448 c0 -22 1 -22 9 -3 6 13 9 15 9 5 1 -13 3 -13 10 -1 8
12 12 12 25 2 8 -7 21 -11 28 -8 15 6 -34 27 -63 27 -13 0 -19 -7 -18 -22z"/>
<path d="M26480 13170 c0 -5 5 -10 10 -10 6 0 10 5 10 10 0 6 -4 10 -10 10 -5
0 -10 -4 -10 -10z"/>
<path d="M6890 17321 c0 -6 4 -13 10 -16 6 -3 7 1 4 9 -7 18 -14 21 -14 7z"/>
<path d="M9908 18933 c12 -2 30 -2 40 0 9 3 -1 5 -23 4 -22 0 -30 -2 -17 -4z"/>
<path d="M9818 18900 c-40 -27 -98 -96 -98 -117 0 -4 12 10 27 32 29 44 59 71
107 97 17 9 26 17 20 18 -6 0 -31 -14 -56 -30z"/>
<path d="M10067 18896 c-10 -8 -14 -16 -10 -19 5 -3 14 3 21 14 14 22 13 23
-11 5z"/>
<path d="M9678 17483 c7 -3 16 -2 19 1 4 3 -2 6 -13 5 -11 0 -14 -3 -6 -6z"/>
<path d="M9710 17461 c0 -20 4 -21 90 -20 103 2 125 13 47 23 -28 4 -71 9 -94
12 -39 6 -43 4 -43 -15z"/>
<path d="M9978 17453 c39 -2 105 -2 145 0 39 1 7 3 -73 3 -80 0 -112 -2 -72
-3z"/>
<path d="M10208 17453 c6 -2 18 -2 25 0 6 3 1 5 -13 5 -14 0 -19 -2 -12 -5z"/>
<path d="M10297 17453 c18 -2 50 -2 70 0 21 2 7 4 -32 4 -38 0 -55 -2 -38 -4z"/>
<path d="M10463 17453 c9 -2 23 -2 30 0 6 3 -1 5 -18 5 -16 0 -22 -2 -12 -5z"/>
<path d="M9180 17430 c0 -5 5 -10 11 -10 5 0 7 5 4 10 -3 6 -8 10 -11 10 -2 0
-4 -4 -4 -10z"/>
<path d="M10065 17430 c3 -5 8 -10 11 -10 2 0 4 5 4 10 0 6 -5 10 -11 10 -5 0
-7 -4 -4 -10z"/>
<path d="M9600 17410 c0 -5 5 -10 10 -10 6 0 10 5 10 10 0 6 -4 10 -10 10 -5
0 -10 -4 -10 -10z"/>
<path d="M9555 17400 c-3 -5 -1 -10 4 -10 6 0 11 5 11 10 0 6 -2 10 -4 10 -3
0 -8 -4 -11 -10z"/>
<path d="M10705 17400 c3 -5 11 -10 16 -10 6 0 7 5 4 10 -3 6 -11 10 -16 10
-6 0 -7 -4 -4 -10z"/>
<path d="M9563 17352 c2 -12 6 -24 10 -28 3 -4 4 4 2 16 -6 30 -16 40 -12 12z"/>
<path d="M9533 17325 c0 -8 4 -12 9 -9 5 3 6 10 3 15 -9 13 -12 11 -12 -6z"/>
<path d="M10680 17326 c0 -2 11 -6 25 -8 13 -3 22 -1 19 3 -5 9 -44 13 -44 5z"/>
<path d="M5910 16813 c-131 -14 -331 -65 -435 -111 -156 -69 -277 -155 -450
-320 -66 -63 -156 -150 -201 -192 -197 -189 -321 -412 -387 -700 l-22 -95 -3
-1435 c-2 -1056 0 -1449 8 -1488 15 -69 67 -124 133 -140 63 -16 990 -17 1052
-1 49 12 100 53 257 205 87 84 97 98 107 144 7 33 11 236 11 585 l0 535 1133
0 c622 0 1149 4 1170 9 l37 9 0 -113 c0 -205 50 -419 140 -600 163 -328 462
-594 793 -704 241 -80 135 -74 1602 -78 1337 -4 1376 -3 1416 33 15 13 22 12
60 -8 l44 -23 1330 0 1330 0 101 22 c307 68 492 171 748 415 281 267 331 324
431 489 125 207 195 524 174 791 -28 352 -155 625 -409 878 -171 172 -326 271
-525 336 l-100 33 335 3 c325 3 336 4 373 25 l37 22 38 -22 c37 -22 38 -22
640 -25 l602 -3 0 -1377 c0 -1491 -1 -1444 54 -1516 14 -18 42 -42 63 -52 36
-18 68 -19 558 -19 501 0 521 1 558 20 43 23 273 235 304 280 11 17 26 54 32
83 8 38 11 417 11 1317 l0 1264 488 3 c431 3 490 5 517 20 35 19 277 241 301
277 9 12 20 39 25 60 13 54 12 984 -1 1032 -17 60 -76 115 -142 129 -39 8
-536 10 -1893 8 l-1840 -3 -42 -22 -43 -23 -42 23 -43 22 -1325 0 -1325 0
-105 -23 c-305 -66 -488 -164 -720 -387 -69 -66 -160 -151 -203 -190 l-76 -70
-4 250 c-2 161 -8 264 -16 288 -19 60 -79 113 -143 127 -39 8 -393 10 -1353 8
l-1300 -4 -98 -22 c-307 -70 -487 -168 -717 -387 -70 -66 -161 -152 -202 -191
l-77 -71 -4 251 c-2 164 -8 264 -16 289 -18 55 -78 111 -134 125 -34 9 -381
12 -1314 10 -697 0 -1284 -3 -1303 -5z m2560 -653 l0 -460 -1247 -2 -1248 -3
-41 -22 c-23 -12 -60 -43 -82 -68 -77 -88 -72 22 -72 -1502 l0 -1363 -469 0
-468 0 -5 1363 c-3 803 -2 1399 4 1452 18 181 81 358 181 512 58 91 253 286
346 348 147 96 310 162 461 184 41 6 86 13 100 15 14 2 591 4 1283 5 l1257 1
0 -460z m3918 3 l2 -451 -117 -111 -117 -111 -458 0 c-252 0 -458 3 -458 8 0
4 -15 7 -32 8 -68 2 -188 8 -188 10 0 1 8 8 17 15 11 10 14 10 9 2 -4 -8 -2
-13 4 -13 7 0 10 6 7 13 -2 6 -11 11 -21 9 -11 -2 -16 4 -16 23 0 24 -3 26
-32 21 -30 -4 -31 -3 -15 9 11 7 24 12 30 11 7 -2 9 -1 5 1 -5 3 -8 13 -8 23
0 10 -4 22 -10 25 -6 3 -10 -4 -10 -16 0 -12 -3 -19 -7 -16 -3 4 -11 3 -17 -3
-8 -6 -12 -3 -12 10 0 10 4 17 7 14 4 -2 10 0 13 5 8 13 -21 34 -36 25 -10 -5
-10 -4 -1 6 10 11 15 11 28 0 9 -7 15 -8 15 -2 0 6 8 13 18 15 9 3 -235 4
-543 3 -557 -1 -560 -1 -601 -23 -173 -93 -207 -346 -62 -469 18 -15 53 -37
78 -48 45 -21 48 -21 1283 -21 l1238 0 -1 -458 0 -458 -83 -79 -82 -78 -3 44
c-3 38 -6 44 -25 43 -12 0 -55 2 -94 4 l-73 5 -1 -52 c-1 -28 0 -61 1 -74 2
-23 0 -23 -74 -21 -56 2 -76 7 -76 17 0 7 5 10 10 7 6 -3 10 -1 10 4 0 6 -5
11 -10 11 -6 0 -15 12 -20 26 -6 15 -14 22 -22 18 -6 -4 -8 -3 -4 4 3 6 2 13
-4 17 -16 10 -12 25 7 25 15 0 14 2 -3 19 -14 13 -24 16 -36 9 -13 -6 -18 -5
-18 6 0 8 -6 17 -12 20 -7 3 -4 5 7 5 11 -1 29 0 40 2 57 8 -395 15 -1095 17
-903 3 -856 7 -945 -81 -119 -120 -115 -305 9 -414 89 -78 -7 -73 1368 -73
l1228 0 0 -460 0 -461 -1272 6 c-1375 7 -1369 7 -1537 62 -96 31 -249 110
-326 168 -124 93 -262 244 -338 370 -47 76 -101 209 -129 316 -20 75 -23 107
-22 294 0 194 2 217 26 307 33 122 91 247 163 349 l55 79 -46 62 c-90 123
-160 287 -190 447 -20 104 -22 324 -4 436 23 152 93 327 183 459 56 82 248
272 332 327 150 100 314 166 465 188 41 6 86 13 100 15 14 2 592 3 1285 2
l1260 -1 3 -452z m3912 3 l0 -454 -117 -111 -116 -111 -1231 -2 -1231 -3 0
-75 c1 -63 5 -83 30 -128 16 -30 46 -67 66 -83 78 -61 48 -59 758 -59 378 0
691 -4 750 -10 153 -16 281 -52 408 -115 331 -163 576 -469 649 -810 90 -418
-34 -834 -334 -1119 -231 -222 -319 -301 -385 -347 -138 -98 -296 -164 -472
-197 -77 -15 -160 -17 -585 -17 -569 0 -799 5 -806 17 -3 5 -10 5 -16 2 -7 -4
-8 -2 -4 5 6 9 11 9 22 0 8 -6 18 -9 22 -5 6 6 -22 28 -38 30 -9 2 -50 43 -50
52 0 4 4 4 9 -1 6 -6 32 -8 59 -7 l50 4 -22 22 c-11 12 -24 21 -27 19 -4 -1
-9 4 -13 12 -3 8 -10 15 -16 15 -6 0 -8 -4 -5 -10 3 -5 2 -10 -3 -10 -6 0 -9
11 -8 25 1 24 4 25 66 27 36 2 -187 5 -495 8 l-560 5 -3 458 -2 457 1229 0
c973 0 1231 3 1238 13 15 24 5 123 -17 175 -13 29 -42 69 -67 93 -85 78 -30
73 -858 80 -793 6 -775 5 -936 59 -80 27 -208 92 -284 143 -85 58 -227 198
-298 292 -249 334 -297 810 -121 1194 76 166 142 245 449 542 230 222 417 321
690 364 62 10 373 13 1353 14 l1272 1 0 -454z m3910 2 l1 -453 -118 -112 -118
-113 -557 0 -558 0 0 -1372 0 -1373 -119 -112 -119 -113 -466 0 -466 0 -2
1483 -3 1482 -672 3 -673 2 0 455 0 455 113 110 112 109 1823 1 1822 0 0 -452z
m-9339 -501 c-10 -9 -11 -8 -5 6 3 10 9 15 12 12 3 -3 0 -11 -7 -18z m49 -57
c0 -6 -5 -10 -12 -10 -6 0 -8 3 -5 7 4 3 -1 12 -11 20 -15 13 -15 13 6 3 12
-6 22 -15 22 -20z m87 -46 c-3 -3 -12 -4 -19 -1 -8 3 -5 6 6 6 11 1 17 -2 13
-5z m7 -35 c-3 -5 -10 -7 -15 -3 -5 3 -7 10 -3 15 3 5 10 7 15 3 5 -3 7 -10 3
-15z m-2544 -854 l0 -455 -1277 2 -1278 3 -4 453 -3 452 1281 0 1281 0 0 -455z
m4379 -634 c104 -71 245 -140 341 -168 l65 -18 -330 -5 c-313 -5 -332 -6 -371
-27 -41 -21 -41 -21 -72 -1 -20 13 -58 22 -111 26 l-80 7 119 110 c129 120
151 151 170 237 l13 57 82 -77 c45 -43 123 -106 174 -141z m-709 78 c0 -4 -8
-6 -17 -4 -10 2 -21 4 -25 4 -5 1 -8 8 -8 16 0 12 4 13 25 3 14 -6 25 -15 25
-19z m45 -49 c-3 -5 -1 -10 6 -10 9 0 9 -3 0 -14 -13 -16 -54 -29 -45 -15 3 5
12 9 20 9 8 0 14 4 14 9 0 6 -9 8 -20 6 -27 -5 -25 3 3 15 29 12 29 12 22 0z
m452 -466 c-3 -3 -12 -4 -19 -1 -8 3 -5 6 6 6 11 1 17 -2 13 -5z m3 -81 c0
-51 -1 -53 -21 -43 -20 11 -20 11 -4 -20 9 -18 14 -34 11 -38 -3 -3 -6 1 -6 8
0 9 -3 10 -9 5 -6 -6 -11 -42 -12 -82 -1 -40 -6 -70 -11 -67 -4 3 -8 0 -8 -5
0 -6 -4 -11 -10 -11 -5 0 -9 3 -8 8 4 12 -40 82 -52 82 -6 0 -13 -6 -16 -14
-5 -12 -10 -12 -33 2 -22 12 -28 23 -27 49 1 27 15 47 79 111 64 64 83 78 103
74 22 -4 24 -9 24 -59z m-110 -193 c0 -4 -7 -11 -16 -14 -13 -5 -14 -4 -6 7 7
8 8 18 4 22 -4 5 -1 5 6 1 6 -4 12 -11 12 -16z m1053 -617 c-7 -2 -13 -16 -13
-29 0 -13 -4 -24 -9 -24 -5 0 -17 -3 -27 -7 -10 -3 -15 -2 -12 3 3 5 -6 18
-20 28 -24 18 -25 18 -19 1 6 -15 5 -16 -8 -5 -8 7 -13 16 -10 20 3 5 -1 10
-7 13 -7 2 21 4 62 5 41 0 69 -2 63 -5z m39 -45 c-8 -8 -9 -4 -5 13 4 13 8 18
11 10 2 -7 -1 -18 -6 -23z m68 -31 c11 -5 9 -6 -4 -4 -11 1 -21 9 -23 17 -3
10 -2 11 4 4 4 -6 15 -14 23 -17z"/>
<path d="M11876 14145 c25 -19 35 -19 28 0 -4 8 -16 15 -27 15 -20 0 -20 0 -1
-15z"/>
<path d="M11856 14124 c-3 -8 -2 -12 3 -9 5 3 11 -3 13 -12 3 -15 5 -15 10 -3
3 8 0 21 -7 27 -10 10 -14 9 -19 -3z"/>
<path d="M11910 14103 c0 -9 72 -74 77 -69 2 2 -10 15 -27 29 -16 14 -30 30
-30 36 0 6 -4 11 -10 11 -5 0 -10 -3 -10 -7z"/>
<path d="M11880 14076 c0 -2 7 -7 16 -10 8 -3 12 -2 9 4 -6 10 -25 14 -25 6z"/>
<path d="M13988 12723 c28 -2 76 -2 105 0 28 2 5 3 -53 3 -58 0 -81 -1 -52 -3z"/>
<path d="M13959 12708 c-4 -8 -6 -48 -2 -44 6 6 41 -27 37 -35 -2 -3 10 -6 26
-7 22 0 28 4 27 18 -1 10 -7 16 -14 13 -9 -4 -11 1 -7 13 5 18 5 18 -10 0 -16
-20 -16 -19 -16 1 0 12 6 24 13 26 9 4 9 6 -1 6 -7 1 -15 -5 -18 -13 -6 -16
-34 -11 -34 6 0 5 5 6 12 2 7 -4 8 -3 4 4 -7 11 -14 15 -17 10z"/>
<path d="M13690 12696 c0 -2 8 -10 18 -17 15 -13 16 -12 3 4 -13 16 -21 21
-21 13z"/>
<path d="M13721 12661 c-14 -9 -5 -18 17 -17 14 1 18 19 5 23 -4 2 -14 -1 -22
-6z"/>
<path d="M13955 12630 c3 -5 10 -10 16 -10 5 0 9 5 9 10 0 6 -7 10 -16 10 -8
0 -12 -4 -9 -10z"/>
<path d="M12440 13386 c0 -3 7 -12 16 -20 19 -20 40 -11 23 10 -10 13 -39 20
-39 10z"/>
</g>
</svg>
